<svg width="168" height="159" viewBox="0 0 168 159" fill="none" xmlns="http://www.w3.org/2000/svg">
<g opacity="0.2">
<rect x="-14" y="-1.875" width="23.125" height="23.125" stroke="#EEEEEE" stroke-width="0.97677"/>
<rect x="9.125" y="-1.875" width="23.125" height="23.125" stroke="#EEEEEE" stroke-width="0.97677"/>
<rect x="32.25" y="-1.875" width="23.125" height="23.125" stroke="#EEEEEE" stroke-width="0.97677"/>
<rect x="55.375" y="-1.875" width="23.125" height="23.125" stroke="#EEEEEE" stroke-width="0.97677"/>
<rect x="78.5" y="-1.875" width="23.125" height="23.125" stroke="#EEEEEE" stroke-width="0.97677"/>
<rect x="101.625" y="-1.875" width="23.125" height="23.125" stroke="#EEEEEE" stroke-width="0.97677"/>
<rect x="124.75" y="-1.875" width="23.125" height="23.125" stroke="#EEEEEE" stroke-width="0.97677"/>
<rect x="147.875" y="-1.875" width="23.125" height="23.125" stroke="#EEEEEE" stroke-width="0.97677"/>
<rect x="-14" y="21.25" width="23.125" height="23.125" stroke="#EEEEEE" stroke-width="0.97677"/>
<rect x="9.125" y="21.25" width="23.125" height="23.125" stroke="#EEEEEE" stroke-width="0.97677"/>
<rect x="32.25" y="21.25" width="23.125" height="23.125" stroke="#EEEEEE" stroke-width="0.97677"/>
<rect x="55.375" y="21.25" width="23.125" height="23.125" stroke="#EEEEEE" stroke-width="0.97677"/>
<rect x="78.5" y="21.25" width="23.125" height="23.125" stroke="#EEEEEE" stroke-width="0.97677"/>
<rect x="101.625" y="21.25" width="23.125" height="23.125" stroke="#EEEEEE" stroke-width="0.97677"/>
<rect x="124.75" y="21.25" width="23.125" height="23.125" stroke="#EEEEEE" stroke-width="0.97677"/>
<rect x="147.875" y="21.25" width="23.125" height="23.125" stroke="#EEEEEE" stroke-width="0.97677"/>
<rect x="-14" y="44.375" width="23.125" height="23.125" stroke="#EEEEEE" stroke-width="0.97677"/>
<rect x="9.125" y="44.375" width="23.125" height="23.125" stroke="#EEEEEE" stroke-width="0.97677"/>
<rect x="32.25" y="44.375" width="23.125" height="23.125" stroke="#EEEEEE" stroke-width="0.97677"/>
<rect x="55.375" y="44.375" width="23.125" height="23.125" stroke="#EEEEEE" stroke-width="0.97677"/>
<rect x="78.5" y="44.375" width="23.125" height="23.125" stroke="#EEEEEE" stroke-width="0.97677"/>
<rect x="101.625" y="44.375" width="23.125" height="23.125" stroke="#EEEEEE" stroke-width="0.97677"/>
<rect x="124.75" y="44.375" width="23.125" height="23.125" stroke="#EEEEEE" stroke-width="0.97677"/>
<rect x="147.875" y="44.375" width="23.125" height="23.125" stroke="#EEEEEE" stroke-width="0.97677"/>
<rect x="-14" y="67.5" width="23.125" height="23.125" stroke="#EEEEEE" stroke-width="0.97677"/>
<rect x="9.125" y="67.5" width="23.125" height="23.125" stroke="#EEEEEE" stroke-width="0.97677"/>
<rect x="32.25" y="67.5" width="23.125" height="23.125" stroke="#EEEEEE" stroke-width="0.97677"/>
<rect x="55.375" y="67.5" width="23.125" height="23.125" stroke="#EEEEEE" stroke-width="0.97677"/>
<rect x="78.5" y="67.5" width="23.125" height="23.125" stroke="#EEEEEE" stroke-width="0.97677"/>
<rect x="101.625" y="67.5" width="23.125" height="23.125" stroke="#EEEEEE" stroke-width="0.97677"/>
<rect x="124.75" y="67.5" width="23.125" height="23.125" stroke="#EEEEEE" stroke-width="0.97677"/>
<rect x="147.875" y="67.5" width="23.125" height="23.125" stroke="#EEEEEE" stroke-width="0.97677"/>
<rect x="-14" y="90.625" width="23.125" height="23.125" stroke="#EEEEEE" stroke-width="0.97677"/>
<rect x="9.125" y="90.625" width="23.125" height="23.125" stroke="#EEEEEE" stroke-width="0.97677"/>
<rect x="32.25" y="90.625" width="23.125" height="23.125" stroke="#EEEEEE" stroke-width="0.97677"/>
<rect x="55.375" y="90.625" width="23.125" height="23.125" stroke="#EEEEEE" stroke-width="0.97677"/>
<rect x="78.5" y="90.625" width="23.125" height="23.125" stroke="#EEEEEE" stroke-width="0.97677"/>
<rect x="101.625" y="90.625" width="23.125" height="23.125" stroke="#EEEEEE" stroke-width="0.97677"/>
<rect x="124.75" y="90.625" width="23.125" height="23.125" stroke="#EEEEEE" stroke-width="0.97677"/>
<rect x="147.875" y="90.625" width="23.125" height="23.125" stroke="#EEEEEE" stroke-width="0.97677"/>
<rect x="-14" y="113.75" width="23.125" height="23.125" stroke="#EEEEEE" stroke-width="0.97677"/>
<rect x="9.125" y="113.75" width="23.125" height="23.125" stroke="#EEEEEE" stroke-width="0.97677"/>
<rect x="32.25" y="113.75" width="23.125" height="23.125" stroke="#EEEEEE" stroke-width="0.97677"/>
<rect x="55.375" y="113.75" width="23.125" height="23.125" stroke="#EEEEEE" stroke-width="0.97677"/>
<rect x="78.5" y="113.75" width="23.125" height="23.125" stroke="#EEEEEE" stroke-width="0.97677"/>
<rect x="101.625" y="113.75" width="23.125" height="23.125" stroke="#EEEEEE" stroke-width="0.97677"/>
<rect x="124.75" y="113.75" width="23.125" height="23.125" stroke="#EEEEEE" stroke-width="0.97677"/>
<rect x="147.875" y="113.75" width="23.125" height="23.125" stroke="#EEEEEE" stroke-width="0.97677"/>
<rect x="-14" y="136.875" width="23.125" height="23.125" stroke="#EEEEEE" stroke-width="0.97677"/>
<rect x="9.125" y="136.875" width="23.125" height="23.125" stroke="#EEEEEE" stroke-width="0.97677"/>
<rect x="32.25" y="136.875" width="23.125" height="23.125" stroke="#EEEEEE" stroke-width="0.97677"/>
<rect x="55.375" y="136.875" width="23.125" height="23.125" stroke="#EEEEEE" stroke-width="0.97677"/>
<rect x="78.5" y="136.875" width="23.125" height="23.125" stroke="#EEEEEE" stroke-width="0.97677"/>
<rect x="101.625" y="136.875" width="23.125" height="23.125" stroke="#EEEEEE" stroke-width="0.97677"/>
<rect x="124.75" y="136.875" width="23.125" height="23.125" stroke="#EEEEEE" stroke-width="0.97677"/>
<rect x="147.875" y="136.875" width="23.125" height="23.125" stroke="#EEEEEE" stroke-width="0.97677"/>
</g>
</svg>
