<svg width="1440" height="751" viewBox="0 0 1440 751" fill="none" xmlns="http://www.w3.org/2000/svg">
<g clip-path="url(#clip0_552_95003)">
<mask id="mask0_552_95003" style="mask-type:alpha" maskUnits="userSpaceOnUse" x="0" y="0" width="1440" height="1301">
<g clip-path="url(#clip1_552_95003)">
<rect x="100" width="68.8889" height="68.8889" stroke="#99C1ED"/>
<rect x="168.889" width="68.8889" height="68.8889" stroke="#99C1ED"/>
<rect x="237.777" width="68.8889" height="68.8889" stroke="#99C1ED"/>
<rect x="306.667" width="68.8889" height="68.8889" stroke="#99C1ED"/>
<rect x="375.556" width="68.8889" height="68.8889" stroke="#99C1ED"/>
<rect x="444.444" width="68.8889" height="68.8889" stroke="#99C1ED"/>
<rect x="513.333" width="68.8889" height="68.8889" stroke="#99C1ED"/>
<rect x="582.223" width="68.8889" height="68.8889" stroke="#99C1ED"/>
<rect x="651.111" width="68.8889" height="68.8889" stroke="#99C1ED"/>
<rect x="720" width="68.8889" height="68.8889" stroke="#99C1ED"/>
<rect x="788.889" width="68.8889" height="68.8889" stroke="#99C1ED"/>
<rect x="857.777" width="68.8889" height="68.8889" stroke="#99C1ED"/>
<rect x="926.667" width="68.8889" height="68.8889" stroke="#99C1ED"/>
<rect x="995.556" width="68.8889" height="68.8889" stroke="#99C1ED"/>
<rect x="1064.44" width="68.8889" height="68.8889" stroke="#99C1ED"/>
<rect x="1133.33" width="68.8889" height="68.8889" stroke="#99C1ED"/>
<rect x="1202.22" width="68.8889" height="68.8889" stroke="#99C1ED"/>
<rect x="1271.11" width="68.8889" height="68.8889" stroke="#99C1ED"/>
<rect x="100" y="68.8889" width="68.8889" height="68.8889" stroke="#99C1ED"/>
<rect x="168.889" y="68.8889" width="68.8889" height="68.8889" stroke="#99C1ED"/>
<rect x="237.777" y="68.8889" width="68.8889" height="68.8889" stroke="#99C1ED"/>
<rect x="306.667" y="68.8889" width="68.8889" height="68.8889" stroke="#99C1ED"/>
<rect x="375.556" y="68.8889" width="68.8889" height="68.8889" stroke="#99C1ED"/>
<rect x="444.444" y="68.8889" width="68.8889" height="68.8889" stroke="#99C1ED"/>
<rect x="513.333" y="68.8889" width="68.8889" height="68.8889" stroke="#99C1ED"/>
<rect x="582.223" y="68.8889" width="68.8889" height="68.8889" stroke="#99C1ED"/>
<rect x="651.111" y="68.8889" width="68.8889" height="68.8889" stroke="#99C1ED"/>
<rect x="720" y="68.8889" width="68.8889" height="68.8889" stroke="#99C1ED"/>
<rect x="788.889" y="68.8889" width="68.8889" height="68.8889" stroke="#99C1ED"/>
<rect x="857.777" y="68.8889" width="68.8889" height="68.8889" stroke="#99C1ED"/>
<rect x="926.667" y="68.8889" width="68.8889" height="68.8889" stroke="#99C1ED"/>
<rect x="995.556" y="68.8889" width="68.8889" height="68.8889" stroke="#99C1ED"/>
<rect x="1064.44" y="68.8889" width="68.8889" height="68.8889" stroke="#99C1ED"/>
<rect x="1133.33" y="68.8889" width="68.8889" height="68.8889" stroke="#99C1ED"/>
<rect x="1202.22" y="68.8889" width="68.8889" height="68.8889" stroke="#99C1ED"/>
<rect x="1271.11" y="68.8889" width="68.8889" height="68.8889" stroke="#99C1ED"/>
<rect x="100" y="137.778" width="68.8889" height="68.8889" stroke="#99C1ED"/>
<rect x="168.889" y="137.778" width="68.8889" height="68.8889" stroke="#99C1ED"/>
<rect x="237.777" y="137.778" width="68.8889" height="68.8889" stroke="#99C1ED"/>
<rect x="306.667" y="137.778" width="68.8889" height="68.8889" stroke="#99C1ED"/>
<rect x="375.556" y="137.778" width="68.8889" height="68.8889" stroke="#99C1ED"/>
<rect x="444.444" y="137.778" width="68.8889" height="68.8889" stroke="#99C1ED"/>
<rect x="513.333" y="137.778" width="68.8889" height="68.8889" stroke="#99C1ED"/>
<rect x="582.223" y="137.778" width="68.8889" height="68.8889" stroke="#99C1ED"/>
<rect x="651.111" y="137.778" width="68.8889" height="68.8889" stroke="#99C1ED"/>
<rect x="720" y="137.778" width="68.8889" height="68.8889" stroke="#99C1ED"/>
<rect x="788.889" y="137.778" width="68.8889" height="68.8889" stroke="#99C1ED"/>
<rect x="857.777" y="137.778" width="68.8889" height="68.8889" stroke="#99C1ED"/>
<rect x="926.667" y="137.778" width="68.8889" height="68.8889" stroke="#99C1ED"/>
<rect x="995.556" y="137.778" width="68.8889" height="68.8889" stroke="#99C1ED"/>
<rect x="1064.44" y="137.778" width="68.8889" height="68.8889" stroke="#99C1ED"/>
<rect x="1133.33" y="137.778" width="68.8889" height="68.8889" stroke="#99C1ED"/>
<rect x="1202.22" y="137.778" width="68.8889" height="68.8889" stroke="#99C1ED"/>
<rect x="1271.11" y="137.778" width="68.8889" height="68.8889" stroke="#99C1ED"/>
<rect x="100" y="206.667" width="68.8889" height="68.8889" stroke="#99C1ED"/>
<rect x="168.889" y="206.667" width="68.8889" height="68.8889" stroke="#99C1ED"/>
<rect x="237.777" y="206.667" width="68.8889" height="68.8889" stroke="#99C1ED"/>
<rect x="306.667" y="206.667" width="68.8889" height="68.8889" stroke="#99C1ED"/>
<rect x="375.556" y="206.667" width="68.8889" height="68.8889" stroke="#99C1ED"/>
<rect x="444.444" y="206.667" width="68.8889" height="68.8889" stroke="#99C1ED"/>
<rect x="513.333" y="206.667" width="68.8889" height="68.8889" stroke="#99C1ED"/>
<rect x="582.223" y="206.667" width="68.8889" height="68.8889" stroke="#99C1ED"/>
<rect x="651.111" y="206.667" width="68.8889" height="68.8889" stroke="#99C1ED"/>
<rect x="720" y="206.667" width="68.8889" height="68.8889" stroke="#99C1ED"/>
<rect x="788.889" y="206.667" width="68.8889" height="68.8889" stroke="#99C1ED"/>
<rect x="857.777" y="206.667" width="68.8889" height="68.8889" stroke="#99C1ED"/>
<rect x="926.667" y="206.667" width="68.8889" height="68.8889" stroke="#99C1ED"/>
<rect x="995.556" y="206.667" width="68.8889" height="68.8889" stroke="#99C1ED"/>
<rect x="1064.44" y="206.667" width="68.8889" height="68.8889" stroke="#99C1ED"/>
<rect x="1133.33" y="206.667" width="68.8889" height="68.8889" stroke="#99C1ED"/>
<rect x="1202.22" y="206.667" width="68.8889" height="68.8889" stroke="#99C1ED"/>
<rect x="1271.11" y="206.667" width="68.8889" height="68.8889" stroke="#99C1ED"/>
<rect x="100" y="275.556" width="68.8889" height="68.8889" stroke="#99C1ED"/>
<rect x="168.889" y="275.556" width="68.8889" height="68.8889" stroke="#99C1ED"/>
<rect x="237.777" y="275.556" width="68.8889" height="68.8889" stroke="#99C1ED"/>
<rect x="306.667" y="275.556" width="68.8889" height="68.8889" stroke="#99C1ED"/>
<rect x="375.556" y="275.556" width="68.8889" height="68.8889" stroke="#99C1ED"/>
<rect x="444.444" y="275.556" width="68.8889" height="68.8889" stroke="#99C1ED"/>
<rect x="513.333" y="275.556" width="68.8889" height="68.8889" stroke="#99C1ED"/>
<rect x="582.223" y="275.556" width="68.8889" height="68.8889" stroke="#99C1ED"/>
<rect x="651.111" y="275.556" width="68.8889" height="68.8889" stroke="#99C1ED"/>
<rect x="720" y="275.556" width="68.8889" height="68.8889" stroke="#99C1ED"/>
<rect x="788.889" y="275.556" width="68.8889" height="68.8889" stroke="#99C1ED"/>
<rect x="857.777" y="275.556" width="68.8889" height="68.8889" stroke="#99C1ED"/>
<rect x="926.667" y="275.556" width="68.8889" height="68.8889" stroke="#99C1ED"/>
<rect x="995.556" y="275.556" width="68.8889" height="68.8889" stroke="#99C1ED"/>
<rect x="1064.44" y="275.556" width="68.8889" height="68.8889" stroke="#99C1ED"/>
<rect x="1133.33" y="275.556" width="68.8889" height="68.8889" stroke="#99C1ED"/>
<rect x="1202.22" y="275.556" width="68.8889" height="68.8889" stroke="#99C1ED"/>
<rect x="1271.11" y="275.556" width="68.8889" height="68.8889" stroke="#99C1ED"/>
<rect x="100" y="344.444" width="68.8889" height="68.8889" stroke="#99C1ED"/>
<rect x="168.889" y="344.444" width="68.8889" height="68.8889" stroke="#99C1ED"/>
<rect x="237.777" y="344.444" width="68.8889" height="68.8889" stroke="#99C1ED"/>
<rect x="306.667" y="344.444" width="68.8889" height="68.8889" stroke="#99C1ED"/>
<rect x="375.556" y="344.444" width="68.8889" height="68.8889" stroke="#99C1ED"/>
<rect x="444.444" y="344.444" width="68.8889" height="68.8889" stroke="#99C1ED"/>
<rect x="513.333" y="344.444" width="68.8889" height="68.8889" stroke="#99C1ED"/>
<rect x="582.223" y="344.444" width="68.8889" height="68.8889" stroke="#99C1ED"/>
<rect x="651.111" y="344.444" width="68.8889" height="68.8889" stroke="#99C1ED"/>
<rect x="720" y="344.444" width="68.8889" height="68.8889" stroke="#99C1ED"/>
<rect x="788.889" y="344.444" width="68.8889" height="68.8889" stroke="#99C1ED"/>
<rect x="857.777" y="344.444" width="68.8889" height="68.8889" stroke="#99C1ED"/>
<rect x="926.667" y="344.444" width="68.8889" height="68.8889" stroke="#99C1ED"/>
<rect x="995.556" y="344.444" width="68.8889" height="68.8889" stroke="#99C1ED"/>
<rect x="1064.44" y="344.444" width="68.8889" height="68.8889" stroke="#99C1ED"/>
<rect x="1133.33" y="344.444" width="68.8889" height="68.8889" stroke="#99C1ED"/>
<rect x="1202.22" y="344.444" width="68.8889" height="68.8889" stroke="#99C1ED"/>
<rect x="1271.11" y="344.444" width="68.8889" height="68.8889" stroke="#99C1ED"/>
<rect x="100" y="413.333" width="68.8889" height="68.8889" stroke="#99C1ED"/>
<rect x="168.889" y="413.333" width="68.8889" height="68.8889" stroke="#99C1ED"/>
<rect x="237.777" y="413.333" width="68.8889" height="68.8889" stroke="#99C1ED"/>
<rect x="306.667" y="413.333" width="68.8889" height="68.8889" stroke="#99C1ED"/>
<rect x="375.556" y="413.333" width="68.8889" height="68.8889" stroke="#99C1ED"/>
<rect x="444.444" y="413.333" width="68.8889" height="68.8889" stroke="#99C1ED"/>
<rect x="513.333" y="413.333" width="68.8889" height="68.8889" stroke="#99C1ED"/>
<rect x="582.223" y="413.333" width="68.8889" height="68.8889" stroke="#99C1ED"/>
<rect x="651.111" y="413.333" width="68.8889" height="68.8889" stroke="#99C1ED"/>
<rect x="720" y="413.333" width="68.8889" height="68.8889" stroke="#99C1ED"/>
<rect x="788.889" y="413.333" width="68.8889" height="68.8889" stroke="#99C1ED"/>
<rect x="857.777" y="413.333" width="68.8889" height="68.8889" stroke="#99C1ED"/>
<rect x="926.667" y="413.333" width="68.8889" height="68.8889" stroke="#99C1ED"/>
<rect x="995.556" y="413.333" width="68.8889" height="68.8889" stroke="#99C1ED"/>
<rect x="1064.44" y="413.333" width="68.8889" height="68.8889" stroke="#99C1ED"/>
<rect x="1133.33" y="413.333" width="68.8889" height="68.8889" stroke="#99C1ED"/>
<rect x="1202.22" y="413.333" width="68.8889" height="68.8889" stroke="#99C1ED"/>
<rect x="1271.11" y="413.333" width="68.8889" height="68.8889" stroke="#99C1ED"/>
<rect x="100" y="482.222" width="68.8889" height="68.8889" stroke="#99C1ED"/>
<rect x="168.889" y="482.222" width="68.8889" height="68.8889" stroke="#99C1ED"/>
<rect x="237.777" y="482.222" width="68.8889" height="68.8889" stroke="#99C1ED"/>
<rect x="306.667" y="482.222" width="68.8889" height="68.8889" stroke="#99C1ED"/>
<rect x="375.556" y="482.222" width="68.8889" height="68.8889" stroke="#99C1ED"/>
<rect x="444.444" y="482.222" width="68.8889" height="68.8889" stroke="#99C1ED"/>
<rect x="513.333" y="482.222" width="68.8889" height="68.8889" stroke="#99C1ED"/>
<rect x="582.223" y="482.222" width="68.8889" height="68.8889" stroke="#99C1ED"/>
<rect x="651.111" y="482.222" width="68.8889" height="68.8889" stroke="#99C1ED"/>
<rect x="720" y="482.222" width="68.8889" height="68.8889" stroke="#99C1ED"/>
<rect x="788.889" y="482.222" width="68.8889" height="68.8889" stroke="#99C1ED"/>
<rect x="857.777" y="482.222" width="68.8889" height="68.8889" stroke="#99C1ED"/>
<rect x="926.667" y="482.222" width="68.8889" height="68.8889" stroke="#99C1ED"/>
<rect x="995.556" y="482.222" width="68.8889" height="68.8889" stroke="#99C1ED"/>
<rect x="1064.44" y="482.222" width="68.8889" height="68.8889" stroke="#99C1ED"/>
<rect x="1133.33" y="482.222" width="68.8889" height="68.8889" stroke="#99C1ED"/>
<rect x="1202.22" y="482.222" width="68.8889" height="68.8889" stroke="#99C1ED"/>
<rect x="1271.11" y="482.222" width="68.8889" height="68.8889" stroke="#99C1ED"/>
<rect x="100" y="551.111" width="68.8889" height="68.8889" stroke="#99C1ED"/>
<rect x="168.889" y="551.111" width="68.8889" height="68.8889" stroke="#99C1ED"/>
<rect x="237.777" y="551.111" width="68.8889" height="68.8889" stroke="#99C1ED"/>
<rect x="306.667" y="551.111" width="68.8889" height="68.8889" stroke="#99C1ED"/>
<rect x="375.556" y="551.111" width="68.8889" height="68.8889" stroke="#99C1ED"/>
<rect x="444.444" y="551.111" width="68.8889" height="68.8889" stroke="#99C1ED"/>
<rect x="513.333" y="551.111" width="68.8889" height="68.8889" stroke="#99C1ED"/>
<rect x="582.223" y="551.111" width="68.8889" height="68.8889" stroke="#99C1ED"/>
<rect x="651.111" y="551.111" width="68.8889" height="68.8889" stroke="#99C1ED"/>
<rect x="720" y="551.111" width="68.8889" height="68.8889" stroke="#99C1ED"/>
<rect x="788.889" y="551.111" width="68.8889" height="68.8889" stroke="#99C1ED"/>
<rect x="857.777" y="551.111" width="68.8889" height="68.8889" stroke="#99C1ED"/>
<rect x="926.667" y="551.111" width="68.8889" height="68.8889" stroke="#99C1ED"/>
<rect x="995.556" y="551.111" width="68.8889" height="68.8889" stroke="#99C1ED"/>
<rect x="1064.44" y="551.111" width="68.8889" height="68.8889" stroke="#99C1ED"/>
<rect x="1133.33" y="551.111" width="68.8889" height="68.8889" stroke="#99C1ED"/>
<rect x="1202.22" y="551.111" width="68.8889" height="68.8889" stroke="#99C1ED"/>
<rect x="1271.11" y="551.111" width="68.8889" height="68.8889" stroke="#99C1ED"/>
<rect x="100" y="620" width="68.8889" height="68.8889" stroke="#99C1ED"/>
<rect x="168.889" y="620" width="68.8889" height="68.8889" stroke="#99C1ED"/>
<rect x="237.777" y="620" width="68.8889" height="68.8889" stroke="#99C1ED"/>
<rect x="306.667" y="620" width="68.8889" height="68.8889" stroke="#99C1ED"/>
<rect x="375.556" y="620" width="68.8889" height="68.8889" stroke="#99C1ED"/>
<rect x="444.444" y="620" width="68.8889" height="68.8889" stroke="#99C1ED"/>
<rect x="513.333" y="620" width="68.8889" height="68.8889" stroke="#99C1ED"/>
<rect x="582.223" y="620" width="68.8889" height="68.8889" stroke="#99C1ED"/>
<rect x="651.111" y="620" width="68.8889" height="68.8889" stroke="#99C1ED"/>
<rect x="720" y="620" width="68.8889" height="68.8889" stroke="#99C1ED"/>
<rect x="788.889" y="620" width="68.8889" height="68.8889" stroke="#99C1ED"/>
<rect x="857.777" y="620" width="68.8889" height="68.8889" stroke="#99C1ED"/>
<rect x="926.667" y="620" width="68.8889" height="68.8889" stroke="#99C1ED"/>
<rect x="995.556" y="620" width="68.8889" height="68.8889" stroke="#99C1ED"/>
<rect x="1064.44" y="620" width="68.8889" height="68.8889" stroke="#99C1ED"/>
<rect x="1133.33" y="620" width="68.8889" height="68.8889" stroke="#99C1ED"/>
<rect x="1202.22" y="620" width="68.8889" height="68.8889" stroke="#99C1ED"/>
<rect x="1271.11" y="620" width="68.8889" height="68.8889" stroke="#99C1ED"/>
<rect x="100" y="688.889" width="68.8889" height="68.8889" stroke="#99C1ED"/>
<rect x="168.889" y="688.889" width="68.8889" height="68.8889" stroke="#99C1ED"/>
<rect x="237.777" y="688.889" width="68.8889" height="68.8889" stroke="#99C1ED"/>
<rect x="306.667" y="688.889" width="68.8889" height="68.8889" stroke="#99C1ED"/>
<rect x="375.556" y="688.889" width="68.8889" height="68.8889" stroke="#99C1ED"/>
<rect x="444.444" y="688.889" width="68.8889" height="68.8889" stroke="#99C1ED"/>
<rect x="513.333" y="688.889" width="68.8889" height="68.8889" stroke="#99C1ED"/>
<rect x="582.223" y="688.889" width="68.8889" height="68.8889" stroke="#99C1ED"/>
<rect x="651.111" y="688.889" width="68.8889" height="68.8889" stroke="#99C1ED"/>
<rect x="720" y="688.889" width="68.8889" height="68.8889" stroke="#99C1ED"/>
<rect x="788.889" y="688.889" width="68.8889" height="68.8889" stroke="#99C1ED"/>
<rect x="857.777" y="688.889" width="68.8889" height="68.8889" stroke="#99C1ED"/>
<rect x="926.667" y="688.889" width="68.8889" height="68.8889" stroke="#99C1ED"/>
<rect x="995.556" y="688.889" width="68.8889" height="68.8889" stroke="#99C1ED"/>
<rect x="1064.44" y="688.889" width="68.8889" height="68.8889" stroke="#99C1ED"/>
<rect x="1133.33" y="688.889" width="68.8889" height="68.8889" stroke="#99C1ED"/>
<rect x="1202.22" y="688.889" width="68.8889" height="68.8889" stroke="#99C1ED"/>
<rect x="1271.11" y="688.889" width="68.8889" height="68.8889" stroke="#99C1ED"/>
</g>
</mask>
<g mask="url(#mask0_552_95003)">
<rect width="1440" height="751" fill="url(#paint0_linear_552_95003)"/>
</g>
</g>
<defs>
<linearGradient id="paint0_linear_552_95003" x1="754.344" y1="751" x2="754.344" y2="0" gradientUnits="userSpaceOnUse">
<stop stop-color="#EEEEEE" stop-opacity="0"/>
<stop offset="0.2" stop-color="#EEEEEE"/>
<stop offset="0.8" stop-color="#EEEEEE"/>
<stop offset="1" stop-color="#EEEEEE" stop-opacity="0"/>
</linearGradient>
<clipPath id="clip0_552_95003">
<rect width="1440" height="751" fill="white"/>
</clipPath>
<clipPath id="clip1_552_95003">
<rect width="1440" height="1301" fill="white"/>
</clipPath>
</defs>
</svg>
