<svg width="1440" height="375" viewBox="0 0 1440 375" fill="none" xmlns="http://www.w3.org/2000/svg">
<g clip-path="url(#clip0_617_56873)">
<mask id="mask0_617_56873" style="mask-type:alpha" maskUnits="userSpaceOnUse" x="0" y="0" width="1440" height="1301">
<g opacity="0.75" clip-path="url(#clip1_617_56873)">
<rect width="80" height="80" transform="matrix(-1 0 0 1 1440 0)" stroke="#99C1ED"/>
<rect width="80" height="80" transform="matrix(-1 0 0 1 1360 0)" stroke="#99C1ED"/>
<rect width="80" height="80" transform="matrix(-1 0 0 1 1280 0)" stroke="#99C1ED"/>
<rect width="80" height="80" transform="matrix(-1 0 0 1 1200 0)" stroke="#99C1ED"/>
<rect width="80" height="80" transform="matrix(-1 0 0 1 1120 0)" stroke="#99C1ED"/>
<rect width="80" height="80" transform="matrix(-1 0 0 1 1040 0)" stroke="#99C1ED"/>
<rect width="80" height="80" transform="matrix(-1 0 0 1 960 0)" stroke="#99C1ED"/>
<rect width="80" height="80" transform="matrix(-1 0 0 1 880 0)" stroke="#99C1ED"/>
<rect width="80" height="80" transform="matrix(-1 0 0 1 800 0)" stroke="#99C1ED"/>
<rect width="80" height="80" transform="matrix(-1 0 0 1 720 0)" stroke="#99C1ED"/>
<rect width="80" height="80" transform="matrix(-1 0 0 1 640 0)" stroke="#99C1ED"/>
<rect width="80" height="80" transform="matrix(-1 0 0 1 560 0)" stroke="#99C1ED"/>
<rect width="80" height="80" transform="matrix(-1 0 0 1 480 0)" stroke="#99C1ED"/>
<rect width="80" height="80" transform="matrix(-1 0 0 1 400 0)" stroke="#99C1ED"/>
<rect width="80" height="80" transform="matrix(-1 0 0 1 320 0)" stroke="#99C1ED"/>
<rect width="80" height="80" transform="matrix(-1 0 0 1 240 0)" stroke="#99C1ED"/>
<rect width="80" height="80" transform="matrix(-1 0 0 1 160 0)" stroke="#99C1ED"/>
<rect width="80" height="80" transform="matrix(-1 0 0 1 80 0)" stroke="#99C1ED"/>
<rect width="80" height="80" transform="matrix(-1 0 0 1 1440 80)" stroke="#99C1ED"/>
<rect width="80" height="80" transform="matrix(-1 0 0 1 1360 80)" stroke="#99C1ED"/>
<rect width="80" height="80" transform="matrix(-1 0 0 1 1280 80)" stroke="#99C1ED"/>
<rect width="80" height="80" transform="matrix(-1 0 0 1 1200 80)" stroke="#99C1ED"/>
<rect width="80" height="80" transform="matrix(-1 0 0 1 1120 80)" stroke="#99C1ED"/>
<rect width="80" height="80" transform="matrix(-1 0 0 1 1040 80)" stroke="#99C1ED"/>
<rect width="80" height="80" transform="matrix(-1 0 0 1 960 80)" stroke="#99C1ED"/>
<rect width="80" height="80" transform="matrix(-1 0 0 1 880 80)" stroke="#99C1ED"/>
<rect width="80" height="80" transform="matrix(-1 0 0 1 800 80)" stroke="#99C1ED"/>
<rect width="80" height="80" transform="matrix(-1 0 0 1 720 80)" stroke="#99C1ED"/>
<rect width="80" height="80" transform="matrix(-1 0 0 1 640 80)" stroke="#99C1ED"/>
<rect width="80" height="80" transform="matrix(-1 0 0 1 560 80)" stroke="#99C1ED"/>
<rect width="80" height="80" transform="matrix(-1 0 0 1 480 80)" stroke="#99C1ED"/>
<rect width="80" height="80" transform="matrix(-1 0 0 1 400 80)" stroke="#99C1ED"/>
<rect width="80" height="80" transform="matrix(-1 0 0 1 320 80)" stroke="#99C1ED"/>
<rect width="80" height="80" transform="matrix(-1 0 0 1 240 80)" stroke="#99C1ED"/>
<rect width="80" height="80" transform="matrix(-1 0 0 1 160 80)" stroke="#99C1ED"/>
<rect width="80" height="80" transform="matrix(-1 0 0 1 80 80)" stroke="#99C1ED"/>
<rect width="80" height="80" transform="matrix(-1 0 0 1 1440 160)" stroke="#99C1ED"/>
<rect width="80" height="80" transform="matrix(-1 0 0 1 1360 160)" stroke="#99C1ED"/>
<rect width="80" height="80" transform="matrix(-1 0 0 1 1280 160)" stroke="#99C1ED"/>
<rect width="80" height="80" transform="matrix(-1 0 0 1 1200 160)" stroke="#99C1ED"/>
<rect width="80" height="80" transform="matrix(-1 0 0 1 1120 160)" stroke="#99C1ED"/>
<rect width="80" height="80" transform="matrix(-1 0 0 1 1040 160)" stroke="#99C1ED"/>
<rect width="80" height="80" transform="matrix(-1 0 0 1 960 160)" stroke="#99C1ED"/>
<rect width="80" height="80" transform="matrix(-1 0 0 1 880 160)" stroke="#99C1ED"/>
<rect width="80" height="80" transform="matrix(-1 0 0 1 800 160)" stroke="#99C1ED"/>
<rect width="80" height="80" transform="matrix(-1 0 0 1 720 160)" stroke="#99C1ED"/>
<rect width="80" height="80" transform="matrix(-1 0 0 1 640 160)" stroke="#99C1ED"/>
<rect width="80" height="80" transform="matrix(-1 0 0 1 560 160)" stroke="#99C1ED"/>
<rect width="80" height="80" transform="matrix(-1 0 0 1 480 160)" stroke="#99C1ED"/>
<rect width="80" height="80" transform="matrix(-1 0 0 1 400 160)" stroke="#99C1ED"/>
<rect width="80" height="80" transform="matrix(-1 0 0 1 320 160)" stroke="#99C1ED"/>
<rect width="80" height="80" transform="matrix(-1 0 0 1 240 160)" stroke="#99C1ED"/>
<rect width="80" height="80" transform="matrix(-1 0 0 1 160 160)" stroke="#99C1ED"/>
<rect width="80" height="80" transform="matrix(-1 0 0 1 80 160)" stroke="#99C1ED"/>
<rect width="80" height="80" transform="matrix(-1 0 0 1 1440 240)" stroke="#99C1ED"/>
<rect width="80" height="80" transform="matrix(-1 0 0 1 1360 240)" stroke="#99C1ED"/>
<rect width="80" height="80" transform="matrix(-1 0 0 1 1280 240)" stroke="#99C1ED"/>
<rect width="80" height="80" transform="matrix(-1 0 0 1 1200 240)" stroke="#99C1ED"/>
<rect width="80" height="80" transform="matrix(-1 0 0 1 1120 240)" stroke="#99C1ED"/>
<rect width="80" height="80" transform="matrix(-1 0 0 1 1040 240)" stroke="#99C1ED"/>
<rect width="80" height="80" transform="matrix(-1 0 0 1 960 240)" stroke="#99C1ED"/>
<rect width="80" height="80" transform="matrix(-1 0 0 1 880 240)" stroke="#99C1ED"/>
<rect width="80" height="80" transform="matrix(-1 0 0 1 800 240)" stroke="#99C1ED"/>
<rect width="80" height="80" transform="matrix(-1 0 0 1 720 240)" stroke="#99C1ED"/>
<rect width="80" height="80" transform="matrix(-1 0 0 1 640 240)" stroke="#99C1ED"/>
<rect width="80" height="80" transform="matrix(-1 0 0 1 560 240)" stroke="#99C1ED"/>
<rect width="80" height="80" transform="matrix(-1 0 0 1 480 240)" stroke="#99C1ED"/>
<rect width="80" height="80" transform="matrix(-1 0 0 1 400 240)" stroke="#99C1ED"/>
<rect width="80" height="80" transform="matrix(-1 0 0 1 320 240)" stroke="#99C1ED"/>
<rect width="80" height="80" transform="matrix(-1 0 0 1 240 240)" stroke="#99C1ED"/>
<rect width="80" height="80" transform="matrix(-1 0 0 1 160 240)" stroke="#99C1ED"/>
<rect width="80" height="80" transform="matrix(-1 0 0 1 80 240)" stroke="#99C1ED"/>
<rect width="80" height="80" transform="matrix(-1 0 0 1 1440 320)" stroke="#99C1ED"/>
<rect width="80" height="80" transform="matrix(-1 0 0 1 1360 320)" stroke="#99C1ED"/>
<rect width="80" height="80" transform="matrix(-1 0 0 1 1280 320)" stroke="#99C1ED"/>
<rect width="80" height="80" transform="matrix(-1 0 0 1 1200 320)" stroke="#99C1ED"/>
<rect width="80" height="80" transform="matrix(-1 0 0 1 1120 320)" stroke="#99C1ED"/>
<rect width="80" height="80" transform="matrix(-1 0 0 1 1040 320)" stroke="#99C1ED"/>
<rect width="80" height="80" transform="matrix(-1 0 0 1 960 320)" stroke="#99C1ED"/>
<rect width="80" height="80" transform="matrix(-1 0 0 1 880 320)" stroke="#99C1ED"/>
<rect width="80" height="80" transform="matrix(-1 0 0 1 800 320)" stroke="#99C1ED"/>
<rect width="80" height="80" transform="matrix(-1 0 0 1 720 320)" stroke="#99C1ED"/>
<rect width="80" height="80" transform="matrix(-1 0 0 1 640 320)" stroke="#99C1ED"/>
<rect width="80" height="80" transform="matrix(-1 0 0 1 560 320)" stroke="#99C1ED"/>
<rect width="80" height="80" transform="matrix(-1 0 0 1 480 320)" stroke="#99C1ED"/>
<rect width="80" height="80" transform="matrix(-1 0 0 1 400 320)" stroke="#99C1ED"/>
<rect width="80" height="80" transform="matrix(-1 0 0 1 320 320)" stroke="#99C1ED"/>
<rect width="80" height="80" transform="matrix(-1 0 0 1 240 320)" stroke="#99C1ED"/>
<rect width="80" height="80" transform="matrix(-1 0 0 1 160 320)" stroke="#99C1ED"/>
<rect width="80" height="80" transform="matrix(-1 0 0 1 80 320)" stroke="#99C1ED"/>
</g>
</mask>
<g mask="url(#mask0_617_56873)">
<rect width="1440" height="843" transform="matrix(-1 0 0 1 1440 0)" fill="url(#paint0_linear_617_56873)"/>
<rect width="12" height="12" rx="2" transform="matrix(1 -8.74228e-08 -8.74228e-08 -1 74 166)" fill="#FF9517"/>
<rect width="12" height="12" rx="2" transform="matrix(1 -8.74228e-08 -8.74228e-08 -1 74 86)" fill="#FF9517"/>
<rect width="12" height="12" rx="2" transform="matrix(1 -8.74228e-08 -8.74228e-08 -1 154 86)" fill="#FF9517"/>
</g>
</g>
<defs>
<linearGradient id="paint0_linear_617_56873" x1="1423.5" y1="790.5" x2="193" y2="244" gradientUnits="userSpaceOnUse">
<stop offset="0.311043" stop-color="#EEEEEE"/>
<stop offset="1" stop-color="#EEEEEE" stop-opacity="0"/>
</linearGradient>
<clipPath id="clip0_617_56873">
<rect width="1440" height="375" fill="white" transform="matrix(-1 0 0 1 1440 0)"/>
</clipPath>
<clipPath id="clip1_617_56873">
<rect width="1440" height="1301" fill="white" transform="matrix(-1 0 0 1 1440 0)"/>
</clipPath>
</defs>
</svg>
