<svg width="1440" height="607" viewBox="0 0 1440 607" fill="none" xmlns="http://www.w3.org/2000/svg">
<g clip-path="url(#clip0_552_73824)">
<mask id="mask0_552_73824" style="mask-type:alpha" maskUnits="userSpaceOnUse" x="0" y="0" width="1440" height="1301">
<g clip-path="url(#clip1_552_73824)">
<rect width="45" height="45" stroke="#A6DCDD" stroke-width="0.97677"/>
<rect x="45" width="45" height="45" stroke="#A6DCDD" stroke-width="0.97677"/>
<rect x="90" width="45" height="45" stroke="#A6DCDD" stroke-width="0.97677"/>
<rect x="135" width="45" height="45" stroke="#A6DCDD" stroke-width="0.97677"/>
<rect x="180" width="45" height="45" stroke="#A6DCDD" stroke-width="0.97677"/>
<rect x="225" width="45" height="45" stroke="#A6DCDD" stroke-width="0.97677"/>
<rect x="270" width="45" height="45" stroke="#A6DCDD" stroke-width="0.97677"/>
<rect x="315" width="45" height="45" stroke="#A6DCDD" stroke-width="0.97677"/>
<rect x="360" width="45" height="45" stroke="#A6DCDD" stroke-width="0.97677"/>
<rect x="405" width="45" height="45" stroke="#A6DCDD" stroke-width="0.97677"/>
<rect x="450" width="45" height="45" stroke="#A6DCDD" stroke-width="0.97677"/>
<rect x="495" width="45" height="45" stroke="#A6DCDD" stroke-width="0.97677"/>
<rect x="540" width="45" height="45" stroke="#A6DCDD" stroke-width="0.97677"/>
<rect x="585" width="45" height="45" stroke="#A6DCDD" stroke-width="0.97677"/>
<rect x="630" width="45" height="45" stroke="#A6DCDD" stroke-width="0.97677"/>
<rect x="675" width="45" height="45" stroke="#A6DCDD" stroke-width="0.97677"/>
<rect x="720" width="45" height="45" stroke="#A6DCDD" stroke-width="0.97677"/>
<rect x="765" width="45" height="45" stroke="#A6DCDD" stroke-width="0.97677"/>
<rect x="810" width="45" height="45" stroke="#A6DCDD" stroke-width="0.97677"/>
<rect x="855" width="45" height="45" stroke="#A6DCDD" stroke-width="0.97677"/>
<rect x="900" width="45" height="45" stroke="#A6DCDD" stroke-width="0.97677"/>
<rect x="945" width="45" height="45" stroke="#A6DCDD" stroke-width="0.97677"/>
<rect x="990" width="45" height="45" stroke="#A6DCDD" stroke-width="0.97677"/>
<rect x="1035" width="45" height="45" stroke="#A6DCDD" stroke-width="0.97677"/>
<rect x="1080" width="45" height="45" stroke="#A6DCDD" stroke-width="0.97677"/>
<rect x="1125" width="45" height="45" stroke="#A6DCDD" stroke-width="0.97677"/>
<rect x="1170" width="45" height="45" stroke="#A6DCDD" stroke-width="0.97677"/>
<rect x="1215" width="45" height="45" stroke="#A6DCDD" stroke-width="0.97677"/>
<rect x="1260" width="45" height="45" stroke="#A6DCDD" stroke-width="0.97677"/>
<rect x="1305" width="45" height="45" stroke="#A6DCDD" stroke-width="0.97677"/>
<rect x="1350" width="45" height="45" stroke="#A6DCDD" stroke-width="0.97677"/>
<rect x="1395" width="45" height="45" stroke="#A6DCDD" stroke-width="0.97677"/>
<rect y="45" width="45" height="45" stroke="#A6DCDD" stroke-width="0.97677"/>
<rect x="45" y="45" width="45" height="45" stroke="#A6DCDD" stroke-width="0.97677"/>
<rect x="90" y="45" width="45" height="45" stroke="#A6DCDD" stroke-width="0.97677"/>
<rect x="135" y="45" width="45" height="45" stroke="#A6DCDD" stroke-width="0.97677"/>
<rect x="180" y="45" width="45" height="45" stroke="#A6DCDD" stroke-width="0.97677"/>
<rect x="225" y="45" width="45" height="45" stroke="#A6DCDD" stroke-width="0.97677"/>
<rect x="270" y="45" width="45" height="45" stroke="#A6DCDD" stroke-width="0.97677"/>
<rect x="315" y="45" width="45" height="45" stroke="#A6DCDD" stroke-width="0.97677"/>
<rect x="360" y="45" width="45" height="45" stroke="#A6DCDD" stroke-width="0.97677"/>
<rect x="405" y="45" width="45" height="45" stroke="#A6DCDD" stroke-width="0.97677"/>
<rect x="450" y="45" width="45" height="45" stroke="#A6DCDD" stroke-width="0.97677"/>
<rect x="495" y="45" width="45" height="45" stroke="#A6DCDD" stroke-width="0.97677"/>
<rect x="540" y="45" width="45" height="45" stroke="#A6DCDD" stroke-width="0.97677"/>
<rect x="585" y="45" width="45" height="45" stroke="#A6DCDD" stroke-width="0.97677"/>
<rect x="630" y="45" width="45" height="45" stroke="#A6DCDD" stroke-width="0.97677"/>
<rect x="675" y="45" width="45" height="45" stroke="#A6DCDD" stroke-width="0.97677"/>
<rect x="720" y="45" width="45" height="45" stroke="#A6DCDD" stroke-width="0.97677"/>
<rect x="765" y="45" width="45" height="45" stroke="#A6DCDD" stroke-width="0.97677"/>
<rect x="810" y="45" width="45" height="45" stroke="#A6DCDD" stroke-width="0.97677"/>
<rect x="855" y="45" width="45" height="45" stroke="#A6DCDD" stroke-width="0.97677"/>
<rect x="900" y="45" width="45" height="45" stroke="#A6DCDD" stroke-width="0.97677"/>
<rect x="945" y="45" width="45" height="45" stroke="#A6DCDD" stroke-width="0.97677"/>
<rect x="990" y="45" width="45" height="45" stroke="#A6DCDD" stroke-width="0.97677"/>
<rect x="1035" y="45" width="45" height="45" stroke="#A6DCDD" stroke-width="0.97677"/>
<rect x="1080" y="45" width="45" height="45" stroke="#A6DCDD" stroke-width="0.97677"/>
<rect x="1125" y="45" width="45" height="45" stroke="#A6DCDD" stroke-width="0.97677"/>
<rect x="1170" y="45" width="45" height="45" stroke="#A6DCDD" stroke-width="0.97677"/>
<rect x="1215" y="45" width="45" height="45" stroke="#A6DCDD" stroke-width="0.97677"/>
<rect x="1260" y="45" width="45" height="45" stroke="#A6DCDD" stroke-width="0.97677"/>
<rect x="1305" y="45" width="45" height="45" stroke="#A6DCDD" stroke-width="0.97677"/>
<rect x="1350" y="45" width="45" height="45" stroke="#A6DCDD" stroke-width="0.97677"/>
<rect x="1395" y="45" width="45" height="45" stroke="#A6DCDD" stroke-width="0.97677"/>
<rect y="90" width="45" height="45" stroke="#A6DCDD" stroke-width="0.97677"/>
<rect x="45" y="90" width="45" height="45" stroke="#A6DCDD" stroke-width="0.97677"/>
<rect x="90" y="90" width="45" height="45" stroke="#A6DCDD" stroke-width="0.97677"/>
<rect x="135" y="90" width="45" height="45" stroke="#A6DCDD" stroke-width="0.97677"/>
<rect x="180" y="90" width="45" height="45" stroke="#A6DCDD" stroke-width="0.97677"/>
<rect x="225" y="90" width="45" height="45" stroke="#A6DCDD" stroke-width="0.97677"/>
<rect x="270" y="90" width="45" height="45" stroke="#A6DCDD" stroke-width="0.97677"/>
<rect x="315" y="90" width="45" height="45" stroke="#A6DCDD" stroke-width="0.97677"/>
<rect x="360" y="90" width="45" height="45" stroke="#A6DCDD" stroke-width="0.97677"/>
<rect x="405" y="90" width="45" height="45" stroke="#A6DCDD" stroke-width="0.97677"/>
<rect x="450" y="90" width="45" height="45" stroke="#A6DCDD" stroke-width="0.97677"/>
<rect x="495" y="90" width="45" height="45" stroke="#A6DCDD" stroke-width="0.97677"/>
<rect x="540" y="90" width="45" height="45" stroke="#A6DCDD" stroke-width="0.97677"/>
<rect x="585" y="90" width="45" height="45" stroke="#A6DCDD" stroke-width="0.97677"/>
<rect x="630" y="90" width="45" height="45" stroke="#A6DCDD" stroke-width="0.97677"/>
<rect x="675" y="90" width="45" height="45" stroke="#A6DCDD" stroke-width="0.97677"/>
<rect x="720" y="90" width="45" height="45" stroke="#A6DCDD" stroke-width="0.97677"/>
<rect x="765" y="90" width="45" height="45" stroke="#A6DCDD" stroke-width="0.97677"/>
<rect x="810" y="90" width="45" height="45" stroke="#A6DCDD" stroke-width="0.97677"/>
<rect x="855" y="90" width="45" height="45" stroke="#A6DCDD" stroke-width="0.97677"/>
<rect x="900" y="90" width="45" height="45" stroke="#A6DCDD" stroke-width="0.97677"/>
<rect x="945" y="90" width="45" height="45" stroke="#A6DCDD" stroke-width="0.97677"/>
<rect x="990" y="90" width="45" height="45" stroke="#A6DCDD" stroke-width="0.97677"/>
<rect x="1035" y="90" width="45" height="45" stroke="#A6DCDD" stroke-width="0.97677"/>
<rect x="1080" y="90" width="45" height="45" stroke="#A6DCDD" stroke-width="0.97677"/>
<rect x="1125" y="90" width="45" height="45" stroke="#A6DCDD" stroke-width="0.97677"/>
<rect x="1170" y="90" width="45" height="45" stroke="#A6DCDD" stroke-width="0.97677"/>
<rect x="1215" y="90" width="45" height="45" stroke="#A6DCDD" stroke-width="0.97677"/>
<rect x="1260" y="90" width="45" height="45" stroke="#A6DCDD" stroke-width="0.97677"/>
<rect x="1305" y="90" width="45" height="45" stroke="#A6DCDD" stroke-width="0.97677"/>
<rect x="1350" y="90" width="45" height="45" stroke="#A6DCDD" stroke-width="0.97677"/>
<rect x="1395" y="90" width="45" height="45" stroke="#A6DCDD" stroke-width="0.97677"/>
<rect y="135" width="45" height="45" stroke="#A6DCDD" stroke-width="0.97677"/>
<rect x="45" y="135" width="45" height="45" stroke="#A6DCDD" stroke-width="0.97677"/>
<rect x="90" y="135" width="45" height="45" stroke="#A6DCDD" stroke-width="0.97677"/>
<rect x="135" y="135" width="45" height="45" stroke="#A6DCDD" stroke-width="0.97677"/>
<rect x="180" y="135" width="45" height="45" stroke="#A6DCDD" stroke-width="0.97677"/>
<rect x="225" y="135" width="45" height="45" stroke="#A6DCDD" stroke-width="0.97677"/>
<rect x="270" y="135" width="45" height="45" stroke="#A6DCDD" stroke-width="0.97677"/>
<rect x="315" y="135" width="45" height="45" stroke="#A6DCDD" stroke-width="0.97677"/>
<rect x="360" y="135" width="45" height="45" stroke="#A6DCDD" stroke-width="0.97677"/>
<rect x="405" y="135" width="45" height="45" stroke="#A6DCDD" stroke-width="0.97677"/>
<rect x="450" y="135" width="45" height="45" stroke="#A6DCDD" stroke-width="0.97677"/>
<rect x="495" y="135" width="45" height="45" stroke="#A6DCDD" stroke-width="0.97677"/>
<rect x="540" y="135" width="45" height="45" stroke="#A6DCDD" stroke-width="0.97677"/>
<rect x="585" y="135" width="45" height="45" stroke="#A6DCDD" stroke-width="0.97677"/>
<rect x="630" y="135" width="45" height="45" stroke="#A6DCDD" stroke-width="0.97677"/>
<rect x="675" y="135" width="45" height="45" stroke="#A6DCDD" stroke-width="0.97677"/>
<rect x="720" y="135" width="45" height="45" stroke="#A6DCDD" stroke-width="0.97677"/>
<rect x="765" y="135" width="45" height="45" stroke="#A6DCDD" stroke-width="0.97677"/>
<rect x="810" y="135" width="45" height="45" stroke="#A6DCDD" stroke-width="0.97677"/>
<rect x="855" y="135" width="45" height="45" stroke="#A6DCDD" stroke-width="0.97677"/>
<rect x="900" y="135" width="45" height="45" stroke="#A6DCDD" stroke-width="0.97677"/>
<rect x="945" y="135" width="45" height="45" stroke="#A6DCDD" stroke-width="0.97677"/>
<rect x="990" y="135" width="45" height="45" stroke="#A6DCDD" stroke-width="0.97677"/>
<rect x="1035" y="135" width="45" height="45" stroke="#A6DCDD" stroke-width="0.97677"/>
<rect x="1080" y="135" width="45" height="45" stroke="#A6DCDD" stroke-width="0.97677"/>
<rect x="1125" y="135" width="45" height="45" stroke="#A6DCDD" stroke-width="0.97677"/>
<rect x="1170" y="135" width="45" height="45" stroke="#A6DCDD" stroke-width="0.97677"/>
<rect x="1215" y="135" width="45" height="45" stroke="#A6DCDD" stroke-width="0.97677"/>
<rect x="1260" y="135" width="45" height="45" stroke="#A6DCDD" stroke-width="0.97677"/>
<rect x="1305" y="135" width="45" height="45" stroke="#A6DCDD" stroke-width="0.97677"/>
<rect x="1350" y="135" width="45" height="45" stroke="#A6DCDD" stroke-width="0.97677"/>
<rect x="1395" y="135" width="45" height="45" stroke="#A6DCDD" stroke-width="0.97677"/>
<rect y="180" width="45" height="45" stroke="#A6DCDD" stroke-width="0.97677"/>
<rect x="45" y="180" width="45" height="45" stroke="#A6DCDD" stroke-width="0.97677"/>
<rect x="90" y="180" width="45" height="45" stroke="#A6DCDD" stroke-width="0.97677"/>
<rect x="135" y="180" width="45" height="45" stroke="#A6DCDD" stroke-width="0.97677"/>
<rect x="180" y="180" width="45" height="45" stroke="#A6DCDD" stroke-width="0.97677"/>
<rect x="225" y="180" width="45" height="45" stroke="#A6DCDD" stroke-width="0.97677"/>
<rect x="270" y="180" width="45" height="45" stroke="#A6DCDD" stroke-width="0.97677"/>
<rect x="315" y="180" width="45" height="45" stroke="#A6DCDD" stroke-width="0.97677"/>
<rect x="360" y="180" width="45" height="45" stroke="#A6DCDD" stroke-width="0.97677"/>
<rect x="405" y="180" width="45" height="45" stroke="#A6DCDD" stroke-width="0.97677"/>
<rect x="450" y="180" width="45" height="45" stroke="#A6DCDD" stroke-width="0.97677"/>
<rect x="495" y="180" width="45" height="45" stroke="#A6DCDD" stroke-width="0.97677"/>
<rect x="540" y="180" width="45" height="45" stroke="#A6DCDD" stroke-width="0.97677"/>
<rect x="585" y="180" width="45" height="45" stroke="#A6DCDD" stroke-width="0.97677"/>
<rect x="630" y="180" width="45" height="45" stroke="#A6DCDD" stroke-width="0.97677"/>
<rect x="675" y="180" width="45" height="45" stroke="#A6DCDD" stroke-width="0.97677"/>
<rect x="720" y="180" width="45" height="45" stroke="#A6DCDD" stroke-width="0.97677"/>
<rect x="765" y="180" width="45" height="45" stroke="#A6DCDD" stroke-width="0.97677"/>
<rect x="810" y="180" width="45" height="45" stroke="#A6DCDD" stroke-width="0.97677"/>
<rect x="855" y="180" width="45" height="45" stroke="#A6DCDD" stroke-width="0.97677"/>
<rect x="900" y="180" width="45" height="45" stroke="#A6DCDD" stroke-width="0.97677"/>
<rect x="945" y="180" width="45" height="45" stroke="#A6DCDD" stroke-width="0.97677"/>
<rect x="990" y="180" width="45" height="45" stroke="#A6DCDD" stroke-width="0.97677"/>
<rect x="1035" y="180" width="45" height="45" stroke="#A6DCDD" stroke-width="0.97677"/>
<rect x="1080" y="180" width="45" height="45" stroke="#A6DCDD" stroke-width="0.97677"/>
<rect x="1125" y="180" width="45" height="45" stroke="#A6DCDD" stroke-width="0.97677"/>
<rect x="1170" y="180" width="45" height="45" stroke="#A6DCDD" stroke-width="0.97677"/>
<rect x="1215" y="180" width="45" height="45" stroke="#A6DCDD" stroke-width="0.97677"/>
<rect x="1260" y="180" width="45" height="45" stroke="#A6DCDD" stroke-width="0.97677"/>
<rect x="1305" y="180" width="45" height="45" stroke="#A6DCDD" stroke-width="0.97677"/>
<rect x="1350" y="180" width="45" height="45" stroke="#A6DCDD" stroke-width="0.97677"/>
<rect x="1395" y="180" width="45" height="45" stroke="#A6DCDD" stroke-width="0.97677"/>
<rect y="225" width="45" height="45" stroke="#A6DCDD" stroke-width="0.97677"/>
<rect x="45" y="225" width="45" height="45" stroke="#A6DCDD" stroke-width="0.97677"/>
<rect x="90" y="225" width="45" height="45" stroke="#A6DCDD" stroke-width="0.97677"/>
<rect x="135" y="225" width="45" height="45" stroke="#A6DCDD" stroke-width="0.97677"/>
<rect x="180" y="225" width="45" height="45" stroke="#A6DCDD" stroke-width="0.97677"/>
<rect x="225" y="225" width="45" height="45" stroke="#A6DCDD" stroke-width="0.97677"/>
<rect x="270" y="225" width="45" height="45" stroke="#A6DCDD" stroke-width="0.97677"/>
<rect x="315" y="225" width="45" height="45" stroke="#A6DCDD" stroke-width="0.97677"/>
<rect x="360" y="225" width="45" height="45" stroke="#A6DCDD" stroke-width="0.97677"/>
<rect x="405" y="225" width="45" height="45" stroke="#A6DCDD" stroke-width="0.97677"/>
<rect x="450" y="225" width="45" height="45" stroke="#A6DCDD" stroke-width="0.97677"/>
<rect x="495" y="225" width="45" height="45" stroke="#A6DCDD" stroke-width="0.97677"/>
<rect x="540" y="225" width="45" height="45" stroke="#A6DCDD" stroke-width="0.97677"/>
<rect x="585" y="225" width="45" height="45" stroke="#A6DCDD" stroke-width="0.97677"/>
<rect x="630" y="225" width="45" height="45" stroke="#A6DCDD" stroke-width="0.97677"/>
<rect x="675" y="225" width="45" height="45" stroke="#A6DCDD" stroke-width="0.97677"/>
<rect x="720" y="225" width="45" height="45" stroke="#A6DCDD" stroke-width="0.97677"/>
<rect x="765" y="225" width="45" height="45" stroke="#A6DCDD" stroke-width="0.97677"/>
<rect x="810" y="225" width="45" height="45" stroke="#A6DCDD" stroke-width="0.97677"/>
<rect x="855" y="225" width="45" height="45" stroke="#A6DCDD" stroke-width="0.97677"/>
<rect x="900" y="225" width="45" height="45" stroke="#A6DCDD" stroke-width="0.97677"/>
<rect x="945" y="225" width="45" height="45" stroke="#A6DCDD" stroke-width="0.97677"/>
<rect x="990" y="225" width="45" height="45" stroke="#A6DCDD" stroke-width="0.97677"/>
<rect x="1035" y="225" width="45" height="45" stroke="#A6DCDD" stroke-width="0.97677"/>
<rect x="1080" y="225" width="45" height="45" stroke="#A6DCDD" stroke-width="0.97677"/>
<rect x="1125" y="225" width="45" height="45" stroke="#A6DCDD" stroke-width="0.97677"/>
<rect x="1170" y="225" width="45" height="45" stroke="#A6DCDD" stroke-width="0.97677"/>
<rect x="1215" y="225" width="45" height="45" stroke="#A6DCDD" stroke-width="0.97677"/>
<rect x="1260" y="225" width="45" height="45" stroke="#A6DCDD" stroke-width="0.97677"/>
<rect x="1305" y="225" width="45" height="45" stroke="#A6DCDD" stroke-width="0.97677"/>
<rect x="1350" y="225" width="45" height="45" stroke="#A6DCDD" stroke-width="0.97677"/>
<rect x="1395" y="225" width="45" height="45" stroke="#A6DCDD" stroke-width="0.97677"/>
<rect y="270" width="45" height="45" stroke="#A6DCDD" stroke-width="0.97677"/>
<rect x="45" y="270" width="45" height="45" stroke="#A6DCDD" stroke-width="0.97677"/>
<rect x="90" y="270" width="45" height="45" stroke="#A6DCDD" stroke-width="0.97677"/>
<rect x="135" y="270" width="45" height="45" stroke="#A6DCDD" stroke-width="0.97677"/>
<rect x="180" y="270" width="45" height="45" stroke="#A6DCDD" stroke-width="0.97677"/>
<rect x="225" y="270" width="45" height="45" stroke="#A6DCDD" stroke-width="0.97677"/>
<rect x="270" y="270" width="45" height="45" stroke="#A6DCDD" stroke-width="0.97677"/>
<rect x="315" y="270" width="45" height="45" stroke="#A6DCDD" stroke-width="0.97677"/>
<rect x="360" y="270" width="45" height="45" stroke="#A6DCDD" stroke-width="0.97677"/>
<rect x="405" y="270" width="45" height="45" stroke="#A6DCDD" stroke-width="0.97677"/>
<rect x="450" y="270" width="45" height="45" stroke="#A6DCDD" stroke-width="0.97677"/>
<rect x="495" y="270" width="45" height="45" stroke="#A6DCDD" stroke-width="0.97677"/>
<rect x="540" y="270" width="45" height="45" stroke="#A6DCDD" stroke-width="0.97677"/>
<rect x="585" y="270" width="45" height="45" stroke="#A6DCDD" stroke-width="0.97677"/>
<rect x="630" y="270" width="45" height="45" stroke="#A6DCDD" stroke-width="0.97677"/>
<rect x="675" y="270" width="45" height="45" stroke="#A6DCDD" stroke-width="0.97677"/>
<rect x="720" y="270" width="45" height="45" stroke="#A6DCDD" stroke-width="0.97677"/>
<rect x="765" y="270" width="45" height="45" stroke="#A6DCDD" stroke-width="0.97677"/>
<rect x="810" y="270" width="45" height="45" stroke="#A6DCDD" stroke-width="0.97677"/>
<rect x="855" y="270" width="45" height="45" stroke="#A6DCDD" stroke-width="0.97677"/>
<rect x="900" y="270" width="45" height="45" stroke="#A6DCDD" stroke-width="0.97677"/>
<rect x="945" y="270" width="45" height="45" stroke="#A6DCDD" stroke-width="0.97677"/>
<rect x="990" y="270" width="45" height="45" stroke="#A6DCDD" stroke-width="0.97677"/>
<rect x="1035" y="270" width="45" height="45" stroke="#A6DCDD" stroke-width="0.97677"/>
<rect x="1080" y="270" width="45" height="45" stroke="#A6DCDD" stroke-width="0.97677"/>
<rect x="1125" y="270" width="45" height="45" stroke="#A6DCDD" stroke-width="0.97677"/>
<rect x="1170" y="270" width="45" height="45" stroke="#A6DCDD" stroke-width="0.97677"/>
<rect x="1215" y="270" width="45" height="45" stroke="#A6DCDD" stroke-width="0.97677"/>
<rect x="1260" y="270" width="45" height="45" stroke="#A6DCDD" stroke-width="0.97677"/>
<rect x="1305" y="270" width="45" height="45" stroke="#A6DCDD" stroke-width="0.97677"/>
<rect x="1350" y="270" width="45" height="45" stroke="#A6DCDD" stroke-width="0.97677"/>
<rect x="1395" y="270" width="45" height="45" stroke="#A6DCDD" stroke-width="0.97677"/>
<rect y="315" width="45" height="45" stroke="#A6DCDD" stroke-width="0.97677"/>
<rect x="45" y="315" width="45" height="45" stroke="#A6DCDD" stroke-width="0.97677"/>
<rect x="90" y="315" width="45" height="45" stroke="#A6DCDD" stroke-width="0.97677"/>
<rect x="135" y="315" width="45" height="45" stroke="#A6DCDD" stroke-width="0.97677"/>
<rect x="180" y="315" width="45" height="45" stroke="#A6DCDD" stroke-width="0.97677"/>
<rect x="225" y="315" width="45" height="45" stroke="#A6DCDD" stroke-width="0.97677"/>
<rect x="270" y="315" width="45" height="45" stroke="#A6DCDD" stroke-width="0.97677"/>
<rect x="315" y="315" width="45" height="45" stroke="#A6DCDD" stroke-width="0.97677"/>
<rect x="360" y="315" width="45" height="45" stroke="#A6DCDD" stroke-width="0.97677"/>
<rect x="405" y="315" width="45" height="45" stroke="#A6DCDD" stroke-width="0.97677"/>
<rect x="450" y="315" width="45" height="45" stroke="#A6DCDD" stroke-width="0.97677"/>
<rect x="495" y="315" width="45" height="45" stroke="#A6DCDD" stroke-width="0.97677"/>
<rect x="540" y="315" width="45" height="45" stroke="#A6DCDD" stroke-width="0.97677"/>
<rect x="585" y="315" width="45" height="45" stroke="#A6DCDD" stroke-width="0.97677"/>
<rect x="630" y="315" width="45" height="45" stroke="#A6DCDD" stroke-width="0.97677"/>
<rect x="675" y="315" width="45" height="45" stroke="#A6DCDD" stroke-width="0.97677"/>
<rect x="720" y="315" width="45" height="45" stroke="#A6DCDD" stroke-width="0.97677"/>
<rect x="765" y="315" width="45" height="45" stroke="#A6DCDD" stroke-width="0.97677"/>
<rect x="810" y="315" width="45" height="45" stroke="#A6DCDD" stroke-width="0.97677"/>
<rect x="855" y="315" width="45" height="45" stroke="#A6DCDD" stroke-width="0.97677"/>
<rect x="900" y="315" width="45" height="45" stroke="#A6DCDD" stroke-width="0.97677"/>
<rect x="945" y="315" width="45" height="45" stroke="#A6DCDD" stroke-width="0.97677"/>
<rect x="990" y="315" width="45" height="45" stroke="#A6DCDD" stroke-width="0.97677"/>
<rect x="1035" y="315" width="45" height="45" stroke="#A6DCDD" stroke-width="0.97677"/>
<rect x="1080" y="315" width="45" height="45" stroke="#A6DCDD" stroke-width="0.97677"/>
<rect x="1125" y="315" width="45" height="45" stroke="#A6DCDD" stroke-width="0.97677"/>
<rect x="1170" y="315" width="45" height="45" stroke="#A6DCDD" stroke-width="0.97677"/>
<rect x="1215" y="315" width="45" height="45" stroke="#A6DCDD" stroke-width="0.97677"/>
<rect x="1260" y="315" width="45" height="45" stroke="#A6DCDD" stroke-width="0.97677"/>
<rect x="1305" y="315" width="45" height="45" stroke="#A6DCDD" stroke-width="0.97677"/>
<rect x="1350" y="315" width="45" height="45" stroke="#A6DCDD" stroke-width="0.97677"/>
<rect x="1395" y="315" width="45" height="45" stroke="#A6DCDD" stroke-width="0.97677"/>
<rect y="360" width="45" height="45" stroke="#A6DCDD" stroke-width="0.97677"/>
<rect x="45" y="360" width="45" height="45" stroke="#A6DCDD" stroke-width="0.97677"/>
<rect x="90" y="360" width="45" height="45" stroke="#A6DCDD" stroke-width="0.97677"/>
<rect x="135" y="360" width="45" height="45" stroke="#A6DCDD" stroke-width="0.97677"/>
<rect x="180" y="360" width="45" height="45" stroke="#A6DCDD" stroke-width="0.97677"/>
<rect x="225" y="360" width="45" height="45" stroke="#A6DCDD" stroke-width="0.97677"/>
<rect x="270" y="360" width="45" height="45" stroke="#A6DCDD" stroke-width="0.97677"/>
<rect x="315" y="360" width="45" height="45" stroke="#A6DCDD" stroke-width="0.97677"/>
<rect x="360" y="360" width="45" height="45" stroke="#A6DCDD" stroke-width="0.97677"/>
<rect x="405" y="360" width="45" height="45" stroke="#A6DCDD" stroke-width="0.97677"/>
<rect x="450" y="360" width="45" height="45" stroke="#A6DCDD" stroke-width="0.97677"/>
<rect x="495" y="360" width="45" height="45" stroke="#A6DCDD" stroke-width="0.97677"/>
<rect x="540" y="360" width="45" height="45" stroke="#A6DCDD" stroke-width="0.97677"/>
<rect x="585" y="360" width="45" height="45" stroke="#A6DCDD" stroke-width="0.97677"/>
<rect x="630" y="360" width="45" height="45" stroke="#A6DCDD" stroke-width="0.97677"/>
<rect x="675" y="360" width="45" height="45" stroke="#A6DCDD" stroke-width="0.97677"/>
<rect x="720" y="360" width="45" height="45" stroke="#A6DCDD" stroke-width="0.97677"/>
<rect x="765" y="360" width="45" height="45" stroke="#A6DCDD" stroke-width="0.97677"/>
<rect x="810" y="360" width="45" height="45" stroke="#A6DCDD" stroke-width="0.97677"/>
<rect x="855" y="360" width="45" height="45" stroke="#A6DCDD" stroke-width="0.97677"/>
<rect x="900" y="360" width="45" height="45" stroke="#A6DCDD" stroke-width="0.97677"/>
<rect x="945" y="360" width="45" height="45" stroke="#A6DCDD" stroke-width="0.97677"/>
<rect x="990" y="360" width="45" height="45" stroke="#A6DCDD" stroke-width="0.97677"/>
<rect x="1035" y="360" width="45" height="45" stroke="#A6DCDD" stroke-width="0.97677"/>
<rect x="1080" y="360" width="45" height="45" stroke="#A6DCDD" stroke-width="0.97677"/>
<rect x="1125" y="360" width="45" height="45" stroke="#A6DCDD" stroke-width="0.97677"/>
<rect x="1170" y="360" width="45" height="45" stroke="#A6DCDD" stroke-width="0.97677"/>
<rect x="1215" y="360" width="45" height="45" stroke="#A6DCDD" stroke-width="0.97677"/>
<rect x="1260" y="360" width="45" height="45" stroke="#A6DCDD" stroke-width="0.97677"/>
<rect x="1305" y="360" width="45" height="45" stroke="#A6DCDD" stroke-width="0.97677"/>
<rect x="1350" y="360" width="45" height="45" stroke="#A6DCDD" stroke-width="0.97677"/>
<rect x="1395" y="360" width="45" height="45" stroke="#A6DCDD" stroke-width="0.97677"/>
<rect y="405" width="45" height="45" stroke="#A6DCDD" stroke-width="0.97677"/>
<rect x="45" y="405" width="45" height="45" stroke="#A6DCDD" stroke-width="0.97677"/>
<rect x="90" y="405" width="45" height="45" stroke="#A6DCDD" stroke-width="0.97677"/>
<rect x="135" y="405" width="45" height="45" stroke="#A6DCDD" stroke-width="0.97677"/>
<rect x="180" y="405" width="45" height="45" stroke="#A6DCDD" stroke-width="0.97677"/>
<rect x="225" y="405" width="45" height="45" stroke="#A6DCDD" stroke-width="0.97677"/>
<rect x="270" y="405" width="45" height="45" stroke="#A6DCDD" stroke-width="0.97677"/>
<rect x="315" y="405" width="45" height="45" stroke="#A6DCDD" stroke-width="0.97677"/>
<rect x="360" y="405" width="45" height="45" stroke="#A6DCDD" stroke-width="0.97677"/>
<rect x="405" y="405" width="45" height="45" stroke="#A6DCDD" stroke-width="0.97677"/>
<rect x="450" y="405" width="45" height="45" stroke="#A6DCDD" stroke-width="0.97677"/>
<rect x="495" y="405" width="45" height="45" stroke="#A6DCDD" stroke-width="0.97677"/>
<rect x="540" y="405" width="45" height="45" stroke="#A6DCDD" stroke-width="0.97677"/>
<rect x="585" y="405" width="45" height="45" stroke="#A6DCDD" stroke-width="0.97677"/>
<rect x="630" y="405" width="45" height="45" stroke="#A6DCDD" stroke-width="0.97677"/>
<rect x="675" y="405" width="45" height="45" stroke="#A6DCDD" stroke-width="0.97677"/>
<rect x="720" y="405" width="45" height="45" stroke="#A6DCDD" stroke-width="0.97677"/>
<rect x="765" y="405" width="45" height="45" stroke="#A6DCDD" stroke-width="0.97677"/>
<rect x="810" y="405" width="45" height="45" stroke="#A6DCDD" stroke-width="0.97677"/>
<rect x="855" y="405" width="45" height="45" stroke="#A6DCDD" stroke-width="0.97677"/>
<rect x="900" y="405" width="45" height="45" stroke="#A6DCDD" stroke-width="0.97677"/>
<rect x="945" y="405" width="45" height="45" stroke="#A6DCDD" stroke-width="0.97677"/>
<rect x="990" y="405" width="45" height="45" stroke="#A6DCDD" stroke-width="0.97677"/>
<rect x="1035" y="405" width="45" height="45" stroke="#A6DCDD" stroke-width="0.97677"/>
<rect x="1080" y="405" width="45" height="45" stroke="#A6DCDD" stroke-width="0.97677"/>
<rect x="1125" y="405" width="45" height="45" stroke="#A6DCDD" stroke-width="0.97677"/>
<rect x="1170" y="405" width="45" height="45" stroke="#A6DCDD" stroke-width="0.97677"/>
<rect x="1215" y="405" width="45" height="45" stroke="#A6DCDD" stroke-width="0.97677"/>
<rect x="1260" y="405" width="45" height="45" stroke="#A6DCDD" stroke-width="0.97677"/>
<rect x="1305" y="405" width="45" height="45" stroke="#A6DCDD" stroke-width="0.97677"/>
<rect x="1350" y="405" width="45" height="45" stroke="#A6DCDD" stroke-width="0.97677"/>
<rect x="1395" y="405" width="45" height="45" stroke="#A6DCDD" stroke-width="0.97677"/>
<rect y="450" width="45" height="45" stroke="#A6DCDD" stroke-width="0.97677"/>
<rect x="45" y="450" width="45" height="45" stroke="#A6DCDD" stroke-width="0.97677"/>
<rect x="90" y="450" width="45" height="45" stroke="#A6DCDD" stroke-width="0.97677"/>
<rect x="135" y="450" width="45" height="45" stroke="#A6DCDD" stroke-width="0.97677"/>
<rect x="180" y="450" width="45" height="45" stroke="#A6DCDD" stroke-width="0.97677"/>
<rect x="225" y="450" width="45" height="45" stroke="#A6DCDD" stroke-width="0.97677"/>
<rect x="270" y="450" width="45" height="45" stroke="#A6DCDD" stroke-width="0.97677"/>
<rect x="315" y="450" width="45" height="45" stroke="#A6DCDD" stroke-width="0.97677"/>
<rect x="360" y="450" width="45" height="45" stroke="#A6DCDD" stroke-width="0.97677"/>
<rect x="405" y="450" width="45" height="45" stroke="#A6DCDD" stroke-width="0.97677"/>
<rect x="450" y="450" width="45" height="45" stroke="#A6DCDD" stroke-width="0.97677"/>
<rect x="495" y="450" width="45" height="45" stroke="#A6DCDD" stroke-width="0.97677"/>
<rect x="540" y="450" width="45" height="45" stroke="#A6DCDD" stroke-width="0.97677"/>
<rect x="585" y="450" width="45" height="45" stroke="#A6DCDD" stroke-width="0.97677"/>
<rect x="630" y="450" width="45" height="45" stroke="#A6DCDD" stroke-width="0.97677"/>
<rect x="675" y="450" width="45" height="45" stroke="#A6DCDD" stroke-width="0.97677"/>
<rect x="720" y="450" width="45" height="45" stroke="#A6DCDD" stroke-width="0.97677"/>
<rect x="765" y="450" width="45" height="45" stroke="#A6DCDD" stroke-width="0.97677"/>
<rect x="810" y="450" width="45" height="45" stroke="#A6DCDD" stroke-width="0.97677"/>
<rect x="855" y="450" width="45" height="45" stroke="#A6DCDD" stroke-width="0.97677"/>
<rect x="900" y="450" width="45" height="45" stroke="#A6DCDD" stroke-width="0.97677"/>
<rect x="945" y="450" width="45" height="45" stroke="#A6DCDD" stroke-width="0.97677"/>
<rect x="990" y="450" width="45" height="45" stroke="#A6DCDD" stroke-width="0.97677"/>
<rect x="1035" y="450" width="45" height="45" stroke="#A6DCDD" stroke-width="0.97677"/>
<rect x="1080" y="450" width="45" height="45" stroke="#A6DCDD" stroke-width="0.97677"/>
<rect x="1125" y="450" width="45" height="45" stroke="#A6DCDD" stroke-width="0.97677"/>
<rect x="1170" y="450" width="45" height="45" stroke="#A6DCDD" stroke-width="0.97677"/>
<rect x="1215" y="450" width="45" height="45" stroke="#A6DCDD" stroke-width="0.97677"/>
<rect x="1260" y="450" width="45" height="45" stroke="#A6DCDD" stroke-width="0.97677"/>
<rect x="1305" y="450" width="45" height="45" stroke="#A6DCDD" stroke-width="0.97677"/>
<rect x="1350" y="450" width="45" height="45" stroke="#A6DCDD" stroke-width="0.97677"/>
<rect x="1395" y="450" width="45" height="45" stroke="#A6DCDD" stroke-width="0.97677"/>
<rect y="495" width="45" height="45" stroke="#A6DCDD" stroke-width="0.97677"/>
<rect x="45" y="495" width="45" height="45" stroke="#A6DCDD" stroke-width="0.97677"/>
<rect x="90" y="495" width="45" height="45" stroke="#A6DCDD" stroke-width="0.97677"/>
<rect x="135" y="495" width="45" height="45" stroke="#A6DCDD" stroke-width="0.97677"/>
<rect x="180" y="495" width="45" height="45" stroke="#A6DCDD" stroke-width="0.97677"/>
<rect x="225" y="495" width="45" height="45" stroke="#A6DCDD" stroke-width="0.97677"/>
<rect x="270" y="495" width="45" height="45" stroke="#A6DCDD" stroke-width="0.97677"/>
<rect x="315" y="495" width="45" height="45" stroke="#A6DCDD" stroke-width="0.97677"/>
<rect x="360" y="495" width="45" height="45" stroke="#A6DCDD" stroke-width="0.97677"/>
<rect x="405" y="495" width="45" height="45" stroke="#A6DCDD" stroke-width="0.97677"/>
<rect x="450" y="495" width="45" height="45" stroke="#A6DCDD" stroke-width="0.97677"/>
<rect x="495" y="495" width="45" height="45" stroke="#A6DCDD" stroke-width="0.97677"/>
<rect x="540" y="495" width="45" height="45" stroke="#A6DCDD" stroke-width="0.97677"/>
<rect x="585" y="495" width="45" height="45" stroke="#A6DCDD" stroke-width="0.97677"/>
<rect x="630" y="495" width="45" height="45" stroke="#A6DCDD" stroke-width="0.97677"/>
<rect x="675" y="495" width="45" height="45" stroke="#A6DCDD" stroke-width="0.97677"/>
<rect x="720" y="495" width="45" height="45" stroke="#A6DCDD" stroke-width="0.97677"/>
<rect x="765" y="495" width="45" height="45" stroke="#A6DCDD" stroke-width="0.97677"/>
<rect x="810" y="495" width="45" height="45" stroke="#A6DCDD" stroke-width="0.97677"/>
<rect x="855" y="495" width="45" height="45" stroke="#A6DCDD" stroke-width="0.97677"/>
<rect x="900" y="495" width="45" height="45" stroke="#A6DCDD" stroke-width="0.97677"/>
<rect x="945" y="495" width="45" height="45" stroke="#A6DCDD" stroke-width="0.97677"/>
<rect x="990" y="495" width="45" height="45" stroke="#A6DCDD" stroke-width="0.97677"/>
<rect x="1035" y="495" width="45" height="45" stroke="#A6DCDD" stroke-width="0.97677"/>
<rect x="1080" y="495" width="45" height="45" stroke="#A6DCDD" stroke-width="0.97677"/>
<rect x="1125" y="495" width="45" height="45" stroke="#A6DCDD" stroke-width="0.97677"/>
<rect x="1170" y="495" width="45" height="45" stroke="#A6DCDD" stroke-width="0.97677"/>
<rect x="1215" y="495" width="45" height="45" stroke="#A6DCDD" stroke-width="0.97677"/>
<rect x="1260" y="495" width="45" height="45" stroke="#A6DCDD" stroke-width="0.97677"/>
<rect x="1305" y="495" width="45" height="45" stroke="#A6DCDD" stroke-width="0.97677"/>
<rect x="1350" y="495" width="45" height="45" stroke="#A6DCDD" stroke-width="0.97677"/>
<rect x="1395" y="495" width="45" height="45" stroke="#A6DCDD" stroke-width="0.97677"/>
<rect y="540" width="45" height="45" stroke="#A6DCDD" stroke-width="0.97677"/>
<rect x="45" y="540" width="45" height="45" stroke="#A6DCDD" stroke-width="0.97677"/>
<rect x="90" y="540" width="45" height="45" stroke="#A6DCDD" stroke-width="0.97677"/>
<rect x="135" y="540" width="45" height="45" stroke="#A6DCDD" stroke-width="0.97677"/>
<rect x="180" y="540" width="45" height="45" stroke="#A6DCDD" stroke-width="0.97677"/>
<rect x="225" y="540" width="45" height="45" stroke="#A6DCDD" stroke-width="0.97677"/>
<rect x="270" y="540" width="45" height="45" stroke="#A6DCDD" stroke-width="0.97677"/>
<rect x="315" y="540" width="45" height="45" stroke="#A6DCDD" stroke-width="0.97677"/>
<rect x="360" y="540" width="45" height="45" stroke="#A6DCDD" stroke-width="0.97677"/>
<rect x="405" y="540" width="45" height="45" stroke="#A6DCDD" stroke-width="0.97677"/>
<rect x="450" y="540" width="45" height="45" stroke="#A6DCDD" stroke-width="0.97677"/>
<rect x="495" y="540" width="45" height="45" stroke="#A6DCDD" stroke-width="0.97677"/>
<rect x="540" y="540" width="45" height="45" stroke="#A6DCDD" stroke-width="0.97677"/>
<rect x="585" y="540" width="45" height="45" stroke="#A6DCDD" stroke-width="0.97677"/>
<rect x="630" y="540" width="45" height="45" stroke="#A6DCDD" stroke-width="0.97677"/>
<rect x="675" y="540" width="45" height="45" stroke="#A6DCDD" stroke-width="0.97677"/>
<rect x="720" y="540" width="45" height="45" stroke="#A6DCDD" stroke-width="0.97677"/>
<rect x="765" y="540" width="45" height="45" stroke="#A6DCDD" stroke-width="0.97677"/>
<rect x="810" y="540" width="45" height="45" stroke="#A6DCDD" stroke-width="0.97677"/>
<rect x="855" y="540" width="45" height="45" stroke="#A6DCDD" stroke-width="0.97677"/>
<rect x="900" y="540" width="45" height="45" stroke="#A6DCDD" stroke-width="0.97677"/>
<rect x="945" y="540" width="45" height="45" stroke="#A6DCDD" stroke-width="0.97677"/>
<rect x="990" y="540" width="45" height="45" stroke="#A6DCDD" stroke-width="0.97677"/>
<rect x="1035" y="540" width="45" height="45" stroke="#A6DCDD" stroke-width="0.97677"/>
<rect x="1080" y="540" width="45" height="45" stroke="#A6DCDD" stroke-width="0.97677"/>
<rect x="1125" y="540" width="45" height="45" stroke="#A6DCDD" stroke-width="0.97677"/>
<rect x="1170" y="540" width="45" height="45" stroke="#A6DCDD" stroke-width="0.97677"/>
<rect x="1215" y="540" width="45" height="45" stroke="#A6DCDD" stroke-width="0.97677"/>
<rect x="1260" y="540" width="45" height="45" stroke="#A6DCDD" stroke-width="0.97677"/>
<rect x="1305" y="540" width="45" height="45" stroke="#A6DCDD" stroke-width="0.97677"/>
<rect x="1350" y="540" width="45" height="45" stroke="#A6DCDD" stroke-width="0.97677"/>
<rect x="1395" y="540" width="45" height="45" stroke="#A6DCDD" stroke-width="0.97677"/>
<rect y="585" width="45" height="45" stroke="#A6DCDD" stroke-width="0.97677"/>
<rect x="45" y="585" width="45" height="45" stroke="#A6DCDD" stroke-width="0.97677"/>
<rect x="90" y="585" width="45" height="45" stroke="#A6DCDD" stroke-width="0.97677"/>
<rect x="135" y="585" width="45" height="45" stroke="#A6DCDD" stroke-width="0.97677"/>
<rect x="180" y="585" width="45" height="45" stroke="#A6DCDD" stroke-width="0.97677"/>
<rect x="225" y="585" width="45" height="45" stroke="#A6DCDD" stroke-width="0.97677"/>
<rect x="270" y="585" width="45" height="45" stroke="#A6DCDD" stroke-width="0.97677"/>
<rect x="315" y="585" width="45" height="45" stroke="#A6DCDD" stroke-width="0.97677"/>
<rect x="360" y="585" width="45" height="45" stroke="#A6DCDD" stroke-width="0.97677"/>
<rect x="405" y="585" width="45" height="45" stroke="#A6DCDD" stroke-width="0.97677"/>
<rect x="450" y="585" width="45" height="45" stroke="#A6DCDD" stroke-width="0.97677"/>
<rect x="495" y="585" width="45" height="45" stroke="#A6DCDD" stroke-width="0.97677"/>
<rect x="540" y="585" width="45" height="45" stroke="#A6DCDD" stroke-width="0.97677"/>
<rect x="585" y="585" width="45" height="45" stroke="#A6DCDD" stroke-width="0.97677"/>
<rect x="630" y="585" width="45" height="45" stroke="#A6DCDD" stroke-width="0.97677"/>
<rect x="675" y="585" width="45" height="45" stroke="#A6DCDD" stroke-width="0.97677"/>
<rect x="720" y="585" width="45" height="45" stroke="#A6DCDD" stroke-width="0.97677"/>
<rect x="765" y="585" width="45" height="45" stroke="#A6DCDD" stroke-width="0.97677"/>
<rect x="810" y="585" width="45" height="45" stroke="#A6DCDD" stroke-width="0.97677"/>
<rect x="855" y="585" width="45" height="45" stroke="#A6DCDD" stroke-width="0.97677"/>
<rect x="900" y="585" width="45" height="45" stroke="#A6DCDD" stroke-width="0.97677"/>
<rect x="945" y="585" width="45" height="45" stroke="#A6DCDD" stroke-width="0.97677"/>
<rect x="990" y="585" width="45" height="45" stroke="#A6DCDD" stroke-width="0.97677"/>
<rect x="1035" y="585" width="45" height="45" stroke="#A6DCDD" stroke-width="0.97677"/>
<rect x="1080" y="585" width="45" height="45" stroke="#A6DCDD" stroke-width="0.97677"/>
<rect x="1125" y="585" width="45" height="45" stroke="#A6DCDD" stroke-width="0.97677"/>
<rect x="1170" y="585" width="45" height="45" stroke="#A6DCDD" stroke-width="0.97677"/>
<rect x="1215" y="585" width="45" height="45" stroke="#A6DCDD" stroke-width="0.97677"/>
<rect x="1260" y="585" width="45" height="45" stroke="#A6DCDD" stroke-width="0.97677"/>
<rect x="1305" y="585" width="45" height="45" stroke="#A6DCDD" stroke-width="0.97677"/>
<rect x="1350" y="585" width="45" height="45" stroke="#A6DCDD" stroke-width="0.97677"/>
<rect x="1395" y="585" width="45" height="45" stroke="#A6DCDD" stroke-width="0.97677"/>
</g>
</mask>
<g mask="url(#mask0_552_73824)">
<rect width="1440" height="843" transform="matrix(-1 0 0 1 1440 0)" fill="url(#paint0_linear_552_73824)"/>
<rect width="8" height="8" rx="2" transform="matrix(0 1 1 4.37114e-08 41 131)" fill="#26B3B8"/>
<rect width="8" height="8" rx="2" transform="matrix(-4.37114e-08 1 1 4.37114e-08 41 176)" fill="#26B3B8"/>
<rect width="8" height="8" rx="2" transform="matrix(-4.37114e-08 1 1 4.37114e-08 41 85.6567)" fill="#26B3B8"/>
</g>
</g>
<defs>
<linearGradient id="paint0_linear_552_73824" x1="1419.5" y1="71" x2="18" y2="598.5" gradientUnits="userSpaceOnUse">
<stop stop-color="#EEEEEE"/>
<stop offset="0.319635" stop-color="#EEEEEE" stop-opacity="0"/>
<stop offset="0.653846" stop-color="#EEEEEE" stop-opacity="0"/>
<stop offset="1" stop-color="#EEEEEE"/>
</linearGradient>
<clipPath id="clip0_552_73824">
<rect width="1440" height="646" fill="white" transform="matrix(-1 0 0 1 1440 0)"/>
</clipPath>
<clipPath id="clip1_552_73824">
<rect width="1440" height="1301" fill="white" transform="matrix(-1 0 0 1 1440 0)"/>
</clipPath>
</defs>
</svg>
