<svg width="1440" height="755" viewBox="0 0 1440 755" fill="none" xmlns="http://www.w3.org/2000/svg">
<g clip-path="url(#clip0_552_71339)">
<mask id="mask0_552_71339" style="mask-type:alpha" maskUnits="userSpaceOnUse" x="0" y="0" width="1440" height="1301">
<g clip-path="url(#clip1_552_71339)">
<rect width="80" height="80" stroke="#99C1ED"/>
<rect x="80" width="80" height="80" stroke="#99C1ED"/>
<rect x="160" width="80" height="80" stroke="#99C1ED"/>
<rect x="240" width="80" height="80" stroke="#99C1ED"/>
<rect x="320" width="80" height="80" stroke="#99C1ED"/>
<rect x="400" width="80" height="80" stroke="#99C1ED"/>
<rect x="480" width="80" height="80" stroke="#99C1ED"/>
<rect x="560" width="80" height="80" stroke="#99C1ED"/>
<rect x="640" width="80" height="80" stroke="#99C1ED"/>
<rect x="720" width="80" height="80" stroke="#99C1ED"/>
<rect x="800" width="80" height="80" stroke="#99C1ED"/>
<rect x="880" width="80" height="80" stroke="#99C1ED"/>
<rect x="960" width="80" height="80" stroke="#99C1ED"/>
<rect x="1040" width="80" height="80" stroke="#99C1ED"/>
<rect x="1120" width="80" height="80" stroke="#99C1ED"/>
<rect x="1200" width="80" height="80" stroke="#99C1ED"/>
<rect x="1280" width="80" height="80" stroke="#99C1ED"/>
<rect x="1360" width="80" height="80" stroke="#99C1ED"/>
<rect y="80" width="80" height="80" stroke="#99C1ED"/>
<rect x="80" y="80" width="80" height="80" stroke="#99C1ED"/>
<rect x="160" y="80" width="80" height="80" stroke="#99C1ED"/>
<rect x="240" y="80" width="80" height="80" stroke="#99C1ED"/>
<rect x="320" y="80" width="80" height="80" stroke="#99C1ED"/>
<rect x="400" y="80" width="80" height="80" stroke="#99C1ED"/>
<rect x="480" y="80" width="80" height="80" stroke="#99C1ED"/>
<rect x="560" y="80" width="80" height="80" stroke="#99C1ED"/>
<rect x="640" y="80" width="80" height="80" stroke="#99C1ED"/>
<rect x="720" y="80" width="80" height="80" stroke="#99C1ED"/>
<rect x="800" y="80" width="80" height="80" stroke="#99C1ED"/>
<rect x="880" y="80" width="80" height="80" stroke="#99C1ED"/>
<rect x="960" y="80" width="80" height="80" stroke="#99C1ED"/>
<rect x="1040" y="80" width="80" height="80" stroke="#99C1ED"/>
<rect x="1120" y="80" width="80" height="80" stroke="#99C1ED"/>
<rect x="1200" y="80" width="80" height="80" stroke="#99C1ED"/>
<rect x="1280" y="80" width="80" height="80" stroke="#99C1ED"/>
<rect x="1360" y="80" width="80" height="80" stroke="#99C1ED"/>
<rect y="160" width="80" height="80" stroke="#99C1ED"/>
<rect x="80" y="160" width="80" height="80" stroke="#99C1ED"/>
<rect x="160" y="160" width="80" height="80" stroke="#99C1ED"/>
<rect x="240" y="160" width="80" height="80" stroke="#99C1ED"/>
<rect x="320" y="160" width="80" height="80" stroke="#99C1ED"/>
<rect x="400" y="160" width="80" height="80" stroke="#99C1ED"/>
<rect x="480" y="160" width="80" height="80" stroke="#99C1ED"/>
<rect x="560" y="160" width="80" height="80" stroke="#99C1ED"/>
<rect x="640" y="160" width="80" height="80" stroke="#99C1ED"/>
<rect x="720" y="160" width="80" height="80" stroke="#99C1ED"/>
<rect x="800" y="160" width="80" height="80" stroke="#99C1ED"/>
<rect x="880" y="160" width="80" height="80" stroke="#99C1ED"/>
<rect x="960" y="160" width="80" height="80" stroke="#99C1ED"/>
<rect x="1040" y="160" width="80" height="80" stroke="#99C1ED"/>
<rect x="1120" y="160" width="80" height="80" stroke="#99C1ED"/>
<rect x="1200" y="160" width="80" height="80" stroke="#99C1ED"/>
<rect x="1280" y="160" width="80" height="80" stroke="#99C1ED"/>
<rect x="1360" y="160" width="80" height="80" stroke="#99C1ED"/>
<rect y="240" width="80" height="80" stroke="#99C1ED"/>
<rect x="80" y="240" width="80" height="80" stroke="#99C1ED"/>
<rect x="160" y="240" width="80" height="80" stroke="#99C1ED"/>
<rect x="240" y="240" width="80" height="80" stroke="#99C1ED"/>
<rect x="320" y="240" width="80" height="80" stroke="#99C1ED"/>
<rect x="400" y="240" width="80" height="80" stroke="#99C1ED"/>
<rect x="480" y="240" width="80" height="80" stroke="#99C1ED"/>
<rect x="560" y="240" width="80" height="80" stroke="#99C1ED"/>
<rect x="640" y="240" width="80" height="80" stroke="#99C1ED"/>
<rect x="720" y="240" width="80" height="80" stroke="#99C1ED"/>
<rect x="800" y="240" width="80" height="80" stroke="#99C1ED"/>
<rect x="880" y="240" width="80" height="80" stroke="#99C1ED"/>
<rect x="960" y="240" width="80" height="80" stroke="#99C1ED"/>
<rect x="1040" y="240" width="80" height="80" stroke="#99C1ED"/>
<rect x="1120" y="240" width="80" height="80" stroke="#99C1ED"/>
<rect x="1200" y="240" width="80" height="80" stroke="#99C1ED"/>
<rect x="1280" y="240" width="80" height="80" stroke="#99C1ED"/>
<rect x="1360" y="240" width="80" height="80" stroke="#99C1ED"/>
<rect y="320" width="80" height="80" stroke="#99C1ED"/>
<rect x="80" y="320" width="80" height="80" stroke="#99C1ED"/>
<rect x="160" y="320" width="80" height="80" stroke="#99C1ED"/>
<rect x="240" y="320" width="80" height="80" stroke="#99C1ED"/>
<rect x="320" y="320" width="80" height="80" stroke="#99C1ED"/>
<rect x="400" y="320" width="80" height="80" stroke="#99C1ED"/>
<rect x="480" y="320" width="80" height="80" stroke="#99C1ED"/>
<rect x="560" y="320" width="80" height="80" stroke="#99C1ED"/>
<rect x="640" y="320" width="80" height="80" stroke="#99C1ED"/>
<rect x="720" y="320" width="80" height="80" stroke="#99C1ED"/>
<rect x="800" y="320" width="80" height="80" stroke="#99C1ED"/>
<rect x="880" y="320" width="80" height="80" stroke="#99C1ED"/>
<rect x="960" y="320" width="80" height="80" stroke="#99C1ED"/>
<rect x="1040" y="320" width="80" height="80" stroke="#99C1ED"/>
<rect x="1120" y="320" width="80" height="80" stroke="#99C1ED"/>
<rect x="1200" y="320" width="80" height="80" stroke="#99C1ED"/>
<rect x="1280" y="320" width="80" height="80" stroke="#99C1ED"/>
<rect x="1360" y="320" width="80" height="80" stroke="#99C1ED"/>
<rect y="400" width="80" height="80" stroke="#99C1ED"/>
<rect x="80" y="400" width="80" height="80" stroke="#99C1ED"/>
<rect x="160" y="400" width="80" height="80" stroke="#99C1ED"/>
<rect x="240" y="400" width="80" height="80" stroke="#99C1ED"/>
<rect x="320" y="400" width="80" height="80" stroke="#99C1ED"/>
<rect x="400" y="400" width="80" height="80" stroke="#99C1ED"/>
<rect x="480" y="400" width="80" height="80" stroke="#99C1ED"/>
<rect x="560" y="400" width="80" height="80" stroke="#99C1ED"/>
<rect x="640" y="400" width="80" height="80" stroke="#99C1ED"/>
<rect x="720" y="400" width="80" height="80" stroke="#99C1ED"/>
<rect x="800" y="400" width="80" height="80" stroke="#99C1ED"/>
<rect x="880" y="400" width="80" height="80" stroke="#99C1ED"/>
<rect x="960" y="400" width="80" height="80" stroke="#99C1ED"/>
<rect x="1040" y="400" width="80" height="80" stroke="#99C1ED"/>
<rect x="1120" y="400" width="80" height="80" stroke="#99C1ED"/>
<rect x="1200" y="400" width="80" height="80" stroke="#99C1ED"/>
<rect x="1280" y="400" width="80" height="80" stroke="#99C1ED"/>
<rect x="1360" y="400" width="80" height="80" stroke="#99C1ED"/>
<rect y="480" width="80" height="80" stroke="#99C1ED"/>
<rect x="80" y="480" width="80" height="80" stroke="#99C1ED"/>
<rect x="160" y="480" width="80" height="80" stroke="#99C1ED"/>
<rect x="240" y="480" width="80" height="80" stroke="#99C1ED"/>
<rect x="320" y="480" width="80" height="80" stroke="#99C1ED"/>
<rect x="400" y="480" width="80" height="80" stroke="#99C1ED"/>
<rect x="480" y="480" width="80" height="80" stroke="#99C1ED"/>
<rect x="560" y="480" width="80" height="80" stroke="#99C1ED"/>
<rect x="640" y="480" width="80" height="80" stroke="#99C1ED"/>
<rect x="720" y="480" width="80" height="80" stroke="#99C1ED"/>
<rect x="800" y="480" width="80" height="80" stroke="#99C1ED"/>
<rect x="880" y="480" width="80" height="80" stroke="#99C1ED"/>
<rect x="960" y="480" width="80" height="80" stroke="#99C1ED"/>
<rect x="1040" y="480" width="80" height="80" stroke="#99C1ED"/>
<rect x="1120" y="480" width="80" height="80" stroke="#99C1ED"/>
<rect x="1200" y="480" width="80" height="80" stroke="#99C1ED"/>
<rect x="1280" y="480" width="80" height="80" stroke="#99C1ED"/>
<rect x="1360" y="480" width="80" height="80" stroke="#99C1ED"/>
<rect y="560" width="80" height="80" stroke="#99C1ED"/>
<rect x="80" y="560" width="80" height="80" stroke="#99C1ED"/>
<rect x="160" y="560" width="80" height="80" stroke="#99C1ED"/>
<rect x="240" y="560" width="80" height="80" stroke="#99C1ED"/>
<rect x="320" y="560" width="80" height="80" stroke="#99C1ED"/>
<rect x="400" y="560" width="80" height="80" stroke="#99C1ED"/>
<rect x="480" y="560" width="80" height="80" stroke="#99C1ED"/>
<rect x="560" y="560" width="80" height="80" stroke="#99C1ED"/>
<rect x="640" y="560" width="80" height="80" stroke="#99C1ED"/>
<rect x="720" y="560" width="80" height="80" stroke="#99C1ED"/>
<rect x="800" y="560" width="80" height="80" stroke="#99C1ED"/>
<rect x="880" y="560" width="80" height="80" stroke="#99C1ED"/>
<rect x="960" y="560" width="80" height="80" stroke="#99C1ED"/>
<rect x="1040" y="560" width="80" height="80" stroke="#99C1ED"/>
<rect x="1120" y="560" width="80" height="80" stroke="#99C1ED"/>
<rect x="1200" y="560" width="80" height="80" stroke="#99C1ED"/>
<rect x="1280" y="560" width="80" height="80" stroke="#99C1ED"/>
<rect x="1360" y="560" width="80" height="80" stroke="#99C1ED"/>
<rect y="640" width="80" height="80" stroke="#99C1ED"/>
<rect x="80" y="640" width="80" height="80" stroke="#99C1ED"/>
<rect x="160" y="640" width="80" height="80" stroke="#99C1ED"/>
<rect x="240" y="640" width="80" height="80" stroke="#99C1ED"/>
<rect x="320" y="640" width="80" height="80" stroke="#99C1ED"/>
<rect x="400" y="640" width="80" height="80" stroke="#99C1ED"/>
<rect x="480" y="640" width="80" height="80" stroke="#99C1ED"/>
<rect x="560" y="640" width="80" height="80" stroke="#99C1ED"/>
<rect x="640" y="640" width="80" height="80" stroke="#99C1ED"/>
<rect x="720" y="640" width="80" height="80" stroke="#99C1ED"/>
<rect x="800" y="640" width="80" height="80" stroke="#99C1ED"/>
<rect x="880" y="640" width="80" height="80" stroke="#99C1ED"/>
<rect x="960" y="640" width="80" height="80" stroke="#99C1ED"/>
<rect x="1040" y="640" width="80" height="80" stroke="#99C1ED"/>
<rect x="1120" y="640" width="80" height="80" stroke="#99C1ED"/>
<rect x="1200" y="640" width="80" height="80" stroke="#99C1ED"/>
<rect x="1280" y="640" width="80" height="80" stroke="#99C1ED"/>
<rect x="1360" y="640" width="80" height="80" stroke="#99C1ED"/>
<rect y="720" width="80" height="80" stroke="#99C1ED"/>
<rect x="80" y="720" width="80" height="80" stroke="#99C1ED"/>
<rect x="160" y="720" width="80" height="80" stroke="#99C1ED"/>
<rect x="240" y="720" width="80" height="80" stroke="#99C1ED"/>
<rect x="320" y="720" width="80" height="80" stroke="#99C1ED"/>
<rect x="400" y="720" width="80" height="80" stroke="#99C1ED"/>
<rect x="480" y="720" width="80" height="80" stroke="#99C1ED"/>
<rect x="560" y="720" width="80" height="80" stroke="#99C1ED"/>
<rect x="640" y="720" width="80" height="80" stroke="#99C1ED"/>
<rect x="720" y="720" width="80" height="80" stroke="#99C1ED"/>
<rect x="800" y="720" width="80" height="80" stroke="#99C1ED"/>
<rect x="880" y="720" width="80" height="80" stroke="#99C1ED"/>
<rect x="960" y="720" width="80" height="80" stroke="#99C1ED"/>
<rect x="1040" y="720" width="80" height="80" stroke="#99C1ED"/>
<rect x="1120" y="720" width="80" height="80" stroke="#99C1ED"/>
<rect x="1200" y="720" width="80" height="80" stroke="#99C1ED"/>
<rect x="1280" y="720" width="80" height="80" stroke="#99C1ED"/>
<rect x="1360" y="720" width="80" height="80" stroke="#99C1ED"/>
</g>
</mask>
<g mask="url(#mask0_552_71339)">
<rect width="1440" height="843" fill="url(#paint0_linear_552_71339)"/>
</g>
</g>
<defs>
<linearGradient id="paint0_linear_552_71339" x1="1440" y1="501.5" x2="664" y2="501.5" gradientUnits="userSpaceOnUse">
<stop stop-color="#EEEEEE" stop-opacity="0"/>
<stop offset="0.2057" stop-color="#EEEEEE"/>
<stop offset="0.516101" stop-color="#EEEEEE"/>
<stop offset="1" stop-color="#EEEEEE" stop-opacity="0"/>
</linearGradient>
<clipPath id="clip0_552_71339">
<rect width="1440" height="759" fill="white"/>
</clipPath>
<clipPath id="clip1_552_71339">
<rect width="1440" height="1301" fill="white"/>
</clipPath>
</defs>
</svg>
