<svg width="28" height="32" viewBox="0 0 28 32" fill="none" xmlns="http://www.w3.org/2000/svg">
<path d="M20.2225 3.2C18.9225 4.40625 17.7487 5.67438 16.7087 6.94812C15.005 4.60125 12.8925 2.22062 10.5 0C4.35875 5.69812 0 13.1225 0 17.6C0 25.5531 6.26813 32 14 32C21.7319 32 28 25.5531 28 17.6C28 14.2706 24.7512 7.40375 20.2225 3.2ZM19.0056 24.4906C17.6519 25.4381 15.9825 26 14.1788 26C9.66937 26 6 23.0163 6 18.1719C6 15.7587 7.51937 13.6325 10.5494 10C10.9825 10.4987 16.7262 17.8337 16.7262 17.8337L20.3906 13.6538C20.6494 14.0819 20.885 14.5006 21.095 14.9019C22.8044 18.1637 22.0831 22.3375 19.0056 24.4906Z" fill="url(#paint0_linear_712_131576)"/>
<defs>
<linearGradient id="paint0_linear_712_131576" x1="17.4868" y1="43.9612" x2="-5.77698" y2="37.326" gradientUnits="userSpaceOnUse">
<stop stop-color="#FF9517"/>
<stop offset="1" stop-color="#26B3B8"/>
</linearGradient>
</defs>
</svg>
