<svg width="32" height="23" viewBox="0 0 32 23" fill="none" xmlns="http://www.w3.org/2000/svg">
<path d="M9.6 11.2C12.695 11.2 15.2 8.695 15.2 5.6C15.2 2.505 12.695 0 9.6 0C6.505 0 4 2.505 4 5.6C4 8.695 6.505 11.2 9.6 11.2ZM13.44 12.8H13.025C11.985 13.3 10.83 13.6 9.6 13.6C8.37 13.6 7.22 13.3 6.175 12.8H5.76C2.58 12.8 0 15.38 0 18.56V20C0 21.325 1.075 22.4 2.4 22.4H16.8C18.125 22.4 19.2 21.325 19.2 20V18.56C19.2 15.38 16.62 12.8 13.44 12.8ZM24 11.2C26.65 11.2 28.8 9.05 28.8 6.4C28.8 3.75 26.65 1.6 24 1.6C21.35 1.6 19.2 3.75 19.2 6.4C19.2 9.05 21.35 11.2 24 11.2ZM26.4 12.8H26.21C25.515 13.04 24.78 13.2 24 13.2C23.22 13.2 22.485 13.04 21.79 12.8H21.6C20.58 12.8 19.64 13.095 18.815 13.57C20.035 14.885 20.8 16.63 20.8 18.56V20.48C20.8 20.59 20.775 20.695 20.77 20.8H29.6C30.925 20.8 32 19.725 32 18.4C32 15.305 29.495 12.8 26.4 12.8Z" fill="#0452A6"/>
</svg>
