<svg width="22" height="32" viewBox="0 0 22 32" fill="none" xmlns="http://www.w3.org/2000/svg">
<path d="M16.0063 10.6687C17.421 10.6687 18.7778 10.1067 19.7782 9.10635C20.7786 8.10596 21.3406 6.74914 21.3406 5.33437C21.3406 3.91961 20.7786 2.56279 19.7782 1.5624C18.7778 0.562013 17.421 0 16.0063 0L5.3375 0C3.92357 0 2.56754 0.561684 1.56774 1.56149C0.567935 2.56129 0.00625145 3.91731 0.00625145 5.33125C0.00625145 6.74519 0.567935 8.10121 1.56774 9.10101C2.56754 10.1008 3.92357 10.6625 5.3375 10.6625C3.92274 10.6625 2.56592 11.2245 1.56553 12.2249C0.565139 13.2253 0.0031265 14.5821 0.0031265 15.9969C0.0031265 17.4116 0.565139 18.7685 1.56553 19.7688C2.56592 20.7692 3.92274 21.3312 5.3375 21.3312C4.28246 21.3306 3.25093 21.6429 2.37336 22.2285C1.49578 22.8142 0.811571 23.6469 0.407254 24.6214C0.00293705 25.5959 -0.10333 26.6684 0.101892 27.7032C0.307114 28.7381 0.814607 29.6889 1.5602 30.4354C2.30578 31.1818 3.25598 31.6905 4.29063 31.8969C5.32527 32.1033 6.3979 31.9983 7.37287 31.5951C8.34783 31.192 9.18135 30.5087 9.76801 29.6318C10.3547 28.755 10.6681 27.7238 10.6688 26.6688V10.6687H16.0063ZM16.0063 10.6687C14.9518 10.6687 13.9211 10.9814 13.0444 11.5672C12.1676 12.153 11.4843 12.9857 11.0808 13.9598C10.6773 14.934 10.5717 16.0059 10.7774 17.0401C10.9831 18.0742 11.4909 19.0242 12.2365 19.7698C12.9821 20.5154 13.932 21.0231 14.9662 21.2288C16.0003 21.4345 17.0723 21.3289 18.0464 20.9254C19.0206 20.5219 19.8532 19.8386 20.439 18.9619C21.0248 18.0852 21.3375 17.0544 21.3375 16C21.3373 14.5861 20.7756 13.2302 19.7758 12.2304C18.7761 11.2307 17.4201 10.6689 16.0063 10.6687Z" fill="url(#paint0_linear_693_82736)"/>
<defs>
<linearGradient id="paint0_linear_693_82736" x1="13.3278" y1="43.9612" x2="-4.98023" y2="39.9814" gradientUnits="userSpaceOnUse">
<stop stop-color="#FF9517"/>
<stop offset="1" stop-color="#26B3B8"/>
</linearGradient>
</defs>
</svg>
