<svg width="32" height="32" viewBox="0 0 32 32" fill="none" xmlns="http://www.w3.org/2000/svg">
<path d="M31.318 24.7313L23.9992 17.4125C22.5555 15.9688 20.3992 15.6875 18.6617 16.5438L11.9992 9.88125V6L3.99922 0L-0.000781298 4L5.99922 12H9.88047L16.543 18.6625C15.693 20.4 15.968 22.5562 17.4117 24L24.7305 31.3188C25.643 32.2313 27.118 32.2313 28.0242 31.3188L31.318 28.025C32.2242 27.1125 32.2242 25.6375 31.318 24.7313ZM20.7305 14.0625C22.4992 14.0625 24.1617 14.75 25.4117 16L26.6242 17.2125C27.6117 16.7812 28.5492 16.1812 29.3617 15.3687C31.6805 13.05 32.468 9.7875 31.7305 6.825C31.593 6.2625 30.8867 6.06875 30.4742 6.48125L25.8242 11.1313L21.5805 10.425L20.8742 6.18125L25.5242 1.53125C25.9367 1.11875 25.7367 0.4125 25.168 0.26875C22.2055 -0.4625 18.943 0.325 16.6305 2.6375C14.8492 4.41875 14.0117 6.76875 14.0555 9.1125L19.1867 14.2437C19.693 14.125 20.218 14.0625 20.7305 14.0625ZM14.2367 19.1875L10.693 15.6438L1.16797 25.175C-0.394531 26.7375 -0.394531 29.2687 1.16797 30.8312C2.73047 32.3937 5.26172 32.3937 6.82422 30.8312L14.5492 23.1063C14.0742 21.8625 13.9305 20.5063 14.2367 19.1875ZM3.99922 29.5C3.17422 29.5 2.49922 28.825 2.49922 28C2.49922 27.1688 3.16797 26.5 3.99922 26.5C4.83047 26.5 5.49922 27.1688 5.49922 28C5.49922 28.825 4.83047 29.5 3.99922 29.5Z" fill="#7E7E7E"/>
</svg>
