<svg width="34" height="27" viewBox="0 0 34 27" fill="none" xmlns="http://www.w3.org/2000/svg">
<path d="M3.33333 21.6667V3.33333C3.33333 2.41667 3.66 1.63222 4.31333 0.98C4.96556 0.326666 5.75 0 6.66667 0H30C30.4722 0 30.8678 0.159445 31.1867 0.478334C31.5067 0.798334 31.6667 1.19444 31.6667 1.66667C31.6667 2.13889 31.5067 2.535 31.1867 2.855C30.8678 3.17389 30.4722 3.33333 30 3.33333H6.66667V21.6667H14.1667C14.8611 21.6667 15.4511 21.91 15.9367 22.3967C16.4233 22.8822 16.6667 23.4722 16.6667 24.1667C16.6667 24.8611 16.4233 25.4511 15.9367 25.9367C15.4511 26.4233 14.8611 26.6667 14.1667 26.6667H2.5C1.80556 26.6667 1.21556 26.4233 0.73 25.9367C0.243333 25.4511 0 24.8611 0 24.1667C0 23.4722 0.243333 22.8822 0.73 22.3967C1.21556 21.91 1.80556 21.6667 2.5 21.6667H3.33333ZM21.6667 26.6667C21.1944 26.6667 20.7989 26.5067 20.48 26.1867C20.16 25.8678 20 25.4722 20 25V8.33333C20 7.86111 20.16 7.465 20.48 7.145C20.7989 6.82611 21.1944 6.66667 21.6667 6.66667H31.6667C32.1389 6.66667 32.5344 6.82611 32.8533 7.145C33.1733 7.465 33.3333 7.86111 33.3333 8.33333V25C33.3333 25.4722 33.1733 25.8678 32.8533 26.1867C32.5344 26.5067 32.1389 26.6667 31.6667 26.6667H21.6667ZM23.3333 21.6667H30V10H23.3333V21.6667Z" fill="#3C3C3C"/>
</svg>
