<svg width="28" height="32" viewBox="0 0 28 32" fill="none" xmlns="http://www.w3.org/2000/svg">
<path d="M3.325 29.1875C3.3727 29.9491 3.70885 30.664 4.26504 31.1865C4.82122 31.709 5.55562 31.9999 6.31875 32H21.6812C22.4444 31.9999 23.1788 31.709 23.735 31.1865C24.2911 30.664 24.6273 29.9491 24.675 29.1875L26 8.00001H2L3.325 29.1875ZM7.70687 18.2L13.2931 12.3088C13.3833 12.2113 13.4926 12.1336 13.6143 12.0804C13.7359 12.0273 13.8672 11.9998 14 11.9998C14.1328 11.9998 14.2641 12.0273 14.3857 12.0804C14.5074 12.1336 14.6167 12.2113 14.7069 12.3088L20.2931 18.2C20.9231 18.8638 20.4769 20 19.5856 20H16V27C16 27.2652 15.8946 27.5196 15.7071 27.7071C15.5196 27.8947 15.2652 28 15 28H13C12.7348 28 12.4804 27.8947 12.2929 27.7071C12.1054 27.5196 12 27.2652 12 27V20H8.41438C7.52313 20 7.07687 18.8638 7.70687 18.2ZM27 2.00001H19.5L18.9125 0.831261C18.788 0.581395 18.5963 0.371213 18.3589 0.22436C18.1216 0.0775074 17.8479 -0.000189248 17.5688 1.09579e-05H10.425C10.1465 -0.0010597 9.87331 0.0763472 9.63675 0.223363C9.4002 0.370379 9.20985 0.581058 9.0875 0.831261L8.5 2.00001H1C0.734784 2.00001 0.48043 2.10537 0.292893 2.2929C0.105357 2.48044 0 2.73479 0 3.00001L0 5.00001C0 5.26523 0.105357 5.51958 0.292893 5.70712C0.48043 5.89465 0.734784 6.00001 1 6.00001H27C27.2652 6.00001 27.5196 5.89465 27.7071 5.70712C27.8946 5.51958 28 5.26523 28 5.00001V3.00001C28 2.73479 27.8946 2.48044 27.7071 2.2929C27.5196 2.10537 27.2652 2.00001 27 2.00001Z" fill="#0452A6"/>
</svg>
