<svg width="32" height="23" viewBox="0 0 32 23" fill="none" xmlns="http://www.w3.org/2000/svg">
<path d="M4.8 9.6C6.565 9.6 8 8.165 8 6.4C8 4.635 6.565 3.2 4.8 3.2C3.035 3.2 1.6 4.635 1.6 6.4C1.6 8.165 3.035 9.6 4.8 9.6ZM27.2 9.6C28.965 9.6 30.4 8.165 30.4 6.4C30.4 4.635 28.965 3.2 27.2 3.2C25.435 3.2 24 4.635 24 6.4C24 8.165 25.435 9.6 27.2 9.6ZM28.8 11.2H25.6C24.72 11.2 23.925 11.555 23.345 12.13C25.36 13.235 26.79 15.23 27.1 17.6H30.4C31.285 17.6 32 16.885 32 16V14.4C32 12.635 30.565 11.2 28.8 11.2ZM16 11.2C19.095 11.2 21.6 8.695 21.6 5.6C21.6 2.505 19.095 0 16 0C12.905 0 10.4 2.505 10.4 5.6C10.4 8.695 12.905 11.2 16 11.2ZM19.84 12.8H19.425C18.385 13.3 17.23 13.6 16 13.6C14.77 13.6 13.62 13.3 12.575 12.8H12.16C8.98 12.8 6.4 15.38 6.4 18.56V20C6.4 21.325 7.475 22.4 8.8 22.4H23.2C24.525 22.4 25.6 21.325 25.6 20V18.56C25.6 15.38 23.02 12.8 19.84 12.8ZM8.655 12.13C8.075 11.555 7.28 11.2 6.4 11.2H3.2C1.435 11.2 0 12.635 0 14.4V16C0 16.885 0.715 17.6 1.6 17.6H4.895C5.21 15.23 6.64 13.235 8.655 12.13Z" fill="url(#paint0_linear_693_82753)"/>
<defs>
<linearGradient id="paint0_linear_693_82753" x1="19.9849" y1="30.7728" x2="-3.64194" y2="19.7709" gradientUnits="userSpaceOnUse">
<stop stop-color="#FF9517"/>
<stop offset="1" stop-color="#26B3B8"/>
</linearGradient>
</defs>
</svg>
