<svg width="32" height="26" viewBox="0 0 32 26" fill="none" xmlns="http://www.w3.org/2000/svg">
<path d="M6.4 17.6H1.6C0.7165 17.6 0 18.3165 0 19.2V24C0 24.8835 0.7165 25.6 1.6 25.6H6.4C7.2835 25.6 8 24.8835 8 24V19.2C8 18.3165 7.2835 17.6 6.4 17.6ZM5.2 13.6H14.8V16H17.2V13.6H26.8V16H29.2V13.1205C29.2 12.062 28.3385 11.2 27.2795 11.2H17.2V8H19.2C20.0835 8 20.8 7.2835 20.8 6.4V1.6C20.8 0.7165 20.0835 0 19.2 0H12.8C11.9165 0 11.2 0.7165 11.2 1.6V6.4C11.2 7.2835 11.9165 8 12.8 8H14.8V11.2H4.7205C3.6615 11.2 2.8 12.0615 2.8 13.1205V16H5.2V13.6ZM18.4 17.6H13.6C12.7165 17.6 12 18.3165 12 19.2V24C12 24.8835 12.7165 25.6 13.6 25.6H18.4C19.2835 25.6 20 24.8835 20 24V19.2C20 18.3165 19.2835 17.6 18.4 17.6ZM30.4 17.6H25.6C24.7165 17.6 24 18.3165 24 19.2V24C24 24.8835 24.7165 25.6 25.6 25.6H30.4C31.2835 25.6 32 24.8835 32 24V19.2C32 18.3165 31.2835 17.6 30.4 17.6Z" fill="#7E7E7E"/>
</svg>
