<svg width="32" height="31" viewBox="0 0 32 31" fill="none" xmlns="http://www.w3.org/2000/svg">
<path d="M31.0466 16.9409H17.0884L26.3842 26.2368C26.7395 26.5921 27.3242 26.6209 27.6895 26.2768C29.966 24.1321 31.5319 21.2409 31.9913 17.9909C32.0701 17.4345 31.6084 16.9409 31.0466 16.9409ZM30.1154 13.1292C29.6307 6.10213 24.0154 0.486833 16.9884 0.00212707C16.4519 -0.0349318 16.0001 0.417421 16.0001 0.955068V14.1174H29.1631C29.7007 14.1174 30.1525 13.6657 30.1154 13.1292ZM13.1766 16.9409V2.98271C13.1766 2.42095 12.6831 1.95919 12.1272 2.03801C5.11719 3.0286 -0.241048 9.15271 0.00836386 16.4921C0.264834 24.0298 6.75483 30.2109 14.296 30.1162C17.2607 30.0792 20.0001 29.1239 22.2525 27.5262C22.7172 27.1968 22.7478 26.5127 22.3448 26.1098L13.1766 16.9409Z" fill="url(#paint0_linear_712_131586)"/>
<defs>
<linearGradient id="paint0_linear_712_131586" x1="19.985" y1="41.3748" x2="-5.68589" y2="32.4841" gradientUnits="userSpaceOnUse">
<stop stop-color="#FF9517"/>
<stop offset="1" stop-color="#26B3B8"/>
</linearGradient>
</defs>
</svg>
