<svg width="30" height="31" viewBox="0 0 30 31" fill="none" xmlns="http://www.w3.org/2000/svg">
<path d="M29.2973 19.2251L26.6348 17.6876C26.9035 16.2376 26.9035 14.7501 26.6348 13.3001L29.2973 11.7626C29.6035 11.5876 29.741 11.2251 29.641 10.8876C28.9473 8.66256 27.766 6.65006 26.2223 4.97506C25.9848 4.71881 25.5973 4.65631 25.2973 4.83131L22.6348 6.36881C21.516 5.40631 20.2285 4.66256 18.8348 4.17506V1.10631C18.8348 0.756308 18.591 0.450059 18.2473 0.375059C15.9535 -0.137441 13.6035 -0.112441 11.4223 0.375059C11.0785 0.450059 10.8348 0.756308 10.8348 1.10631V4.18131C9.44726 4.67506 8.15976 5.41881 7.03476 6.37506L4.37851 4.83756C4.07226 4.66256 3.69101 4.71881 3.45351 4.98131C1.90976 6.65006 0.728508 8.66256 0.0347575 10.8938C-0.0714925 11.2313 0.0722575 11.5938 0.378507 11.7688L3.04101 13.3063C2.77226 14.7563 2.77226 16.2438 3.04101 17.6938L0.378507 19.2313C0.0722575 19.4063 -0.0652425 19.7688 0.0347575 20.1063C0.728508 22.3313 1.90976 24.3438 3.45351 26.0188C3.69101 26.2751 4.07851 26.3376 4.37851 26.1626L7.04101 24.6251C8.15976 25.5876 9.44726 26.3313 10.841 26.8188V29.8938C10.841 30.2438 11.0848 30.5501 11.4285 30.6251C13.7223 31.1376 16.0723 31.1126 18.2535 30.6251C18.5973 30.5501 18.841 30.2438 18.841 29.8938V26.8188C20.2285 26.3251 21.516 25.5813 22.641 24.6251L25.3035 26.1626C25.6098 26.3376 25.991 26.2813 26.2285 26.0188C27.7723 24.3501 28.9535 22.3376 29.6473 20.1063C29.741 19.7626 29.6035 19.4001 29.2973 19.2251ZM14.8348 20.4938C12.0785 20.4938 9.83476 18.2501 9.83476 15.4938C9.83476 12.7376 12.0785 10.4938 14.8348 10.4938C17.591 10.4938 19.8348 12.7376 19.8348 15.4938C19.8348 18.2501 17.591 20.4938 14.8348 20.4938Z" fill="url(#paint0_linear_712_131581)"/>
<defs>
<linearGradient id="paint0_linear_712_131581" x1="18.5337" y1="42.5875" x2="-5.76285" y2="35.0061" gradientUnits="userSpaceOnUse">
<stop stop-color="#FF9517"/>
<stop offset="1" stop-color="#26B3B8"/>
</linearGradient>
</defs>
</svg>
