<svg width="31" height="31" viewBox="0 0 31 31" fill="none" xmlns="http://www.w3.org/2000/svg">
<path d="M0 15.5C0 6.9375 6.9375 0 15.5 0C24.0625 0 31 6.9375 31 15.5C31 24.0625 24.0625 31 15.5 31C6.9375 31 0 24.0625 0 15.5ZM8.975 17.3062L13.5 12.5875V24C13.5 24.8312 14.1687 25.5 15 25.5H16C16.8312 25.5 17.5 24.8312 17.5 24V12.5875L22.025 17.3062C22.6062 17.9125 23.575 17.925 24.1688 17.3312L24.85 16.6437C25.4375 16.0562 25.4375 15.1062 24.85 14.525L16.5625 6.23125C15.975 5.64375 15.025 5.64375 14.4438 6.23125L6.14375 14.525C5.55625 15.1125 5.55625 16.0625 6.14375 16.6437L6.825 17.3312C7.425 17.925 8.39375 17.9125 8.975 17.3062Z" fill="url(#paint0_linear_712_131571)"/>
<defs>
<linearGradient id="paint0_linear_712_131571" x1="19.3604" y1="42.5874" x2="-5.81616" y2="34.3809" gradientUnits="userSpaceOnUse">
<stop stop-color="#FF9517"/>
<stop offset="1" stop-color="#26B3B8"/>
</linearGradient>
</defs>
</svg>
