<svg width="32" height="32" viewBox="0 0 32 32" fill="none" xmlns="http://www.w3.org/2000/svg">
<g clip-path="url(#clip0_693_82740)">
<path d="M30.525 21.8642C30.655 21.1592 30.655 20.4392 30.525 19.7342L31.815 18.9892C31.965 18.9042 32.03 18.7292 31.98 18.5642C31.645 17.4842 31.07 16.5042 30.32 15.6942C30.205 15.5692 30.02 15.5392 29.87 15.6242L28.58 16.3692C28.035 15.9042 27.41 15.5442 26.735 15.3042V13.8142C26.735 13.6442 26.615 13.4942 26.45 13.4592C25.335 13.2092 24.2 13.2192 23.14 13.4592C22.975 13.4942 22.855 13.6442 22.855 13.8142V15.3042C22.18 15.5442 21.555 15.9042 21.01 16.3692L19.72 15.6242C19.575 15.5392 19.385 15.5692 19.27 15.6942C18.52 16.5042 17.945 17.4842 17.61 18.5642C17.56 18.7292 17.63 18.9042 17.775 18.9892L19.065 19.7342C18.935 20.4392 18.935 21.1592 19.065 21.8642L17.775 22.6092C17.625 22.6942 17.56 22.8692 17.61 23.0342C17.945 24.1142 18.52 25.0892 19.27 25.9042C19.385 26.0292 19.57 26.0592 19.72 25.9742L21.01 25.2292C21.555 25.6942 22.18 26.0542 22.855 26.2942V27.7842C22.855 27.9542 22.975 28.1042 23.14 28.1392C24.255 28.3892 25.39 28.3792 26.45 28.1392C26.615 28.1042 26.735 27.9542 26.735 27.7842V26.2942C27.41 26.0542 28.035 25.6942 28.58 25.2292L29.87 25.9742C30.015 26.0592 30.205 26.0292 30.32 25.9042C31.07 25.0942 31.645 24.1142 31.98 23.0342C32.03 22.8692 31.96 22.6942 31.815 22.6092L30.525 21.8642ZM24.8 23.2242C23.46 23.2242 22.375 22.1342 22.375 20.7992C22.375 19.4642 23.465 18.3742 24.8 18.3742C26.135 18.3742 27.225 19.4642 27.225 20.7992C27.225 22.1342 26.14 23.2242 24.8 23.2242ZM11.2 15.9992C14.735 15.9992 17.6 13.1342 17.6 9.59922C17.6 6.06422 14.735 3.19922 11.2 3.19922C7.665 3.19922 4.8 6.06422 4.8 9.59922C4.8 13.1342 7.665 15.9992 11.2 15.9992ZM21.26 27.3242C21.145 27.2642 21.03 27.1942 20.92 27.1292L20.525 27.3592C20.225 27.5292 19.885 27.6242 19.545 27.6242C19 27.6242 18.475 27.3942 18.1 26.9942C17.185 26.0042 16.485 24.7992 16.09 23.5142C15.815 22.6292 16.185 21.6942 16.985 21.2292L17.38 20.9992C17.375 20.8692 17.375 20.7392 17.38 20.6092L16.985 20.3792C16.185 19.9192 15.815 18.9792 16.09 18.0942C16.135 17.9492 16.2 17.8042 16.25 17.6592C16.06 17.6442 15.875 17.5992 15.68 17.5992H14.845C13.735 18.1092 12.5 18.3992 11.2 18.3992C9.9 18.3992 8.67 18.1092 7.555 17.5992H6.72C3.01 17.5992 0 20.6092 0 24.3192V26.3992C0 27.7242 1.075 28.7992 2.4 28.7992H20C20.505 28.7992 20.975 28.6392 21.36 28.3742C21.3 28.1842 21.26 27.9892 21.26 27.7842V27.3242Z" fill="url(#paint0_linear_693_82740)"/>
</g>
<defs>
<linearGradient id="paint0_linear_693_82740" x1="19.9828" y1="38.3682" x2="-4.67196" y2="28.3237" gradientUnits="userSpaceOnUse">
<stop stop-color="#FF9517"/>
<stop offset="1" stop-color="#26B3B8"/>
</linearGradient>
<clipPath id="clip0_693_82740">
<rect width="32" height="32" fill="white"/>
</clipPath>
</defs>
</svg>
