<svg width="139" height="27" viewBox="0 0 139 27" fill="none" xmlns="http://www.w3.org/2000/svg">
<path d="M6.66154 18.6906C-5.04808 12.0153 0.652407 0.929557 8.6943 1.58556C16.8371 2.24983 16.7724 9.75383 20.4731 12.9199C23.1772 15.2331 25.1282 15.7611 27.2606 15.8819C28.1003 15.9297 28.4411 16.9138 27.7297 17.3626C23.0905 20.2881 14.6737 23.258 6.66154 18.6906Z" fill="#FF9517"/>
<path d="M19.3971 6.76191C17.6984 0.259096 23.6392 -1.57022 26.2074 1.52676C28.8078 4.66303 26.1081 7.25505 26.2683 9.6784C26.3854 11.449 26.8771 12.3286 27.577 13.1314C27.8525 13.4476 27.62 13.9124 27.212 13.8149C24.5519 13.1794 20.5595 11.2115 19.3971 6.76191Z" fill="#FF9517"/>
<path d="M48.4381 15.0374H50.2832V15.9022C50.2832 19.1312 48.9858 20.4862 46.5642 20.4862C45.1227 20.4862 43.883 19.8807 43.6524 18.3528C42.5857 19.9672 40.7406 20.4862 38.9243 20.4862C36.6756 20.4862 34.917 19.4195 34.917 16.8248C34.917 11.2318 43.5659 13.9418 43.5659 9.87685C43.5659 8.03176 42.0091 7.6858 40.4811 7.6858C39.6739 7.6858 38.3189 7.94527 37.8 8.63718C38.8666 8.49303 39.7027 8.9543 39.7027 10.1363C39.7027 11.4337 38.809 11.8373 37.6846 11.8373C36.445 11.8373 35.6089 10.8859 35.6089 9.70387C35.6089 6.76325 39.1261 6.129 41.4037 6.129C45.2957 6.129 46.9678 7.88761 46.9678 10.3093V17.3726C46.9678 18.0068 47.2272 18.3239 47.6597 18.3239C48.0921 18.3239 48.4381 17.9203 48.4381 16.1329V15.0374ZM43.5659 14.8067V12.9328L40.5099 14.3166C39.6739 14.6914 38.7802 15.1527 38.7802 16.5077C38.7802 17.7185 39.3279 18.3239 40.5099 18.3239C42.4704 18.3239 43.5659 16.6518 43.5659 14.8067ZM57.1638 6.56144V9.01196H57.2214C58.3458 7.1957 59.5566 6.129 61.8053 6.129C63.7081 6.129 65.0919 6.99389 65.6397 8.86781C66.9082 7.16687 68.2344 6.129 70.4254 6.129C72.6165 6.129 74.4327 7.59931 74.4327 10.194V16.9978C74.4327 17.8338 74.7787 18.151 75.5859 18.151H77.1139V20.0537H69.0416V18.151H69.8776C70.6849 18.151 71.0308 17.8338 71.0308 16.9978V10.194C71.0308 9.04079 70.1083 8.37771 68.9839 8.37771C67.283 8.37771 65.7838 9.90568 65.7838 11.8084V16.9978C65.7838 17.8338 66.1298 18.151 66.937 18.151H67.7154V20.0537H60.3639V18.151H61.2288C62.036 18.151 62.3819 17.8338 62.3819 16.9978V10.9435C62.3819 9.44441 62.0936 8.37771 60.3639 8.37771C58.5764 8.37771 57.1349 10.0787 57.1349 11.8084V16.9978C57.1349 17.8338 57.4809 18.151 58.2881 18.151H59.153V20.0537H50.9654V18.151H52.5799C53.3871 18.151 53.7331 17.8338 53.7331 16.9978V9.61739C53.7331 8.78133 53.3871 8.4642 52.5799 8.4642H50.9654V6.56144H57.1638ZM77.9885 8.4642V6.56144H86.3202V8.4642H85.0805C84.5904 8.4642 84.2445 8.66601 84.2445 9.09845C84.2445 9.27143 84.3886 9.61739 84.5039 9.90568L87.0986 16.0176H87.1563L89.5491 10.1651C89.6933 9.81919 89.8086 9.50207 89.8086 9.15611C89.8086 8.78133 89.405 8.4642 88.8861 8.4642H87.6464V6.56144H94.5943V8.4642C93.5565 8.4642 92.6916 8.66601 92.2303 9.76153L87.5599 20.8609C85.9743 24.6376 84.4751 26.1656 81.794 26.1656C79.8047 26.1656 77.9596 24.9547 77.9596 22.6772C77.9596 21.2646 78.738 20.1402 80.1795 20.1402C81.2174 20.1402 82.1687 20.8898 82.1687 21.9565C82.1687 22.8502 81.5345 23.5998 80.7561 23.5998C80.5255 23.5998 80.2372 23.5709 80.0065 23.5709C80.3237 24.1187 80.8714 24.2628 81.4192 24.2628C83.149 24.2628 83.985 23.3691 84.5328 22.1583L85.4842 20.0537L80.6119 9.58856C80.266 8.83898 79.4588 8.4642 77.9885 8.4642ZM102.013 6.56144V9.01196H102.071C103.195 7.1957 104.406 6.129 106.655 6.129C108.557 6.129 109.941 6.99389 110.489 8.86781C111.757 7.16687 113.084 6.129 115.275 6.129C117.466 6.129 119.282 7.59931 119.282 10.194V16.9978C119.282 17.8338 119.628 18.151 120.435 18.151H121.963V20.0537H113.891V18.151H114.727C115.534 18.151 115.88 17.8338 115.88 16.9978V10.194C115.88 9.04079 114.957 8.37771 113.833 8.37771C112.132 8.37771 110.633 9.90568 110.633 11.8084V16.9978C110.633 17.8338 110.979 18.151 111.786 18.151H112.565V20.0537H105.213V18.151H106.078C106.885 18.151 107.231 17.8338 107.231 16.9978V10.9435C107.231 9.44441 106.943 8.37771 105.213 8.37771C103.426 8.37771 101.984 10.0787 101.984 11.8084V16.9978C101.984 17.8338 102.33 18.151 103.137 18.151H104.002V20.0537H95.8146V18.151H97.4291C98.2363 18.151 98.5823 17.8338 98.5823 16.9978V9.61739C98.5823 8.78133 98.2363 8.4642 97.4291 8.4642H95.8146V6.56144H102.013ZM136.532 15.0374H138.377V15.9022C138.377 19.1312 137.08 20.4862 134.658 20.4862C133.216 20.4862 131.977 19.8807 131.746 18.3528C130.679 19.9672 128.834 20.4862 127.018 20.4862C124.769 20.4862 123.011 19.4195 123.011 16.8248C123.011 11.2318 131.66 13.9418 131.66 9.87685C131.66 8.03176 130.103 7.6858 128.575 7.6858C127.768 7.6858 126.413 7.94527 125.894 8.63718C126.96 8.49303 127.796 8.9543 127.796 10.1363C127.796 11.4337 126.903 11.8373 125.778 11.8373C124.539 11.8373 123.703 10.8859 123.703 9.70387C123.703 6.76325 127.22 6.129 129.497 6.129C133.389 6.129 135.061 7.88761 135.061 10.3093V17.3726C135.061 18.0068 135.321 18.3239 135.753 18.3239C136.186 18.3239 136.532 17.9203 136.532 16.1329V15.0374ZM131.66 14.8067V12.9328L128.604 14.3166C127.768 14.6914 126.874 15.1527 126.874 16.5077C126.874 17.7185 127.422 18.3239 128.604 18.3239C130.564 18.3239 131.66 16.6518 131.66 14.8067Z" fill="white"/>
</svg>
